<svg width="33" height="32" viewBox="0 0 33 32" fill="none" xmlns="http://www.w3.org/2000/svg">
<path fill-rule="evenodd" clip-rule="evenodd" d="M0.15625 28.3889C0.15625 27.9616 0.309394 27.5518 0.581991 27.2497C0.854589 26.9475 1.22431 26.7778 1.60982 26.7778H30.6813C31.0668 26.7778 31.4365 26.9475 31.7091 27.2497C31.9817 27.5518 32.1348 27.9616 32.1348 28.3889C32.1348 28.8162 31.9817 29.226 31.7091 29.5281C31.4365 29.8303 31.0668 30 30.6813 30H1.60982C1.22431 30 0.854589 29.8303 0.581991 29.5281C0.309394 29.226 0.15625 28.8162 0.15625 28.3889ZM0.15625 15.5C0.15625 15.0727 0.309394 14.6629 0.581991 14.3608C0.854589 14.0586 1.22431 13.8889 1.60982 13.8889H30.6813C31.0668 13.8889 31.4365 14.0586 31.7091 14.3608C31.9817 14.6629 32.1348 15.0727 32.1348 15.5C32.1348 15.9273 31.9817 16.3371 31.7091 16.6392C31.4365 16.9414 31.0668 17.1111 30.6813 17.1111H1.60982C1.22431 17.1111 0.854589 16.9414 0.581991 16.6392C0.309394 16.3371 0.15625 15.9273 0.15625 15.5ZM0.15625 2.61111C0.15625 2.18382 0.309394 1.77403 0.581991 1.47188C0.854589 1.16974 1.22431 1 1.60982 1H30.6813C31.0668 1 31.4365 1.16974 31.7091 1.47188C31.9817 1.77403 32.1348 2.18382 32.1348 2.61111C32.1348 3.0384 31.9817 3.4482 31.7091 3.75034C31.4365 4.05248 31.0668 4.22222 30.6813 4.22222H1.60982C1.22431 4.22222 0.854589 4.05248 0.581991 3.75034C0.309394 3.4482 0.15625 3.0384 0.15625 2.61111Z" fill="#DADADA"/>
</svg>
