<svg width="18" height="18" viewBox="0 0 18 18" fill="none" xmlns="http://www.w3.org/2000/svg">
<g clip-path="url(#clip0_1190_338)">
<path d="M9.70922 0.500234C9.09922 0.500234 8.97922 0.930234 8.96922 1.19023C8.93922 1.79023 9.51922 1.83023 9.78922 1.85023L9.96922 1.87023C11.5556 1.91707 13.0613 2.58036 14.1667 3.7193C15.272 4.85823 15.8899 6.38312 15.8892 7.97023C15.8992 8.03023 15.8992 8.11023 15.8992 8.19023C15.8992 8.48023 15.9192 9.10023 16.5692 9.11023H16.5892C16.7992 9.11023 16.9592 9.05023 17.0792 8.93023C17.2792 8.72023 17.2692 8.40024 17.2592 8.14023V7.97023C17.3092 4.12023 13.9792 0.630234 10.1292 0.510234C10.1092 0.510234 10.0992 0.510234 10.0792 0.510234C10.0692 0.510234 10.0592 0.510234 10.0392 0.510234C9.99579 0.508247 9.95244 0.504912 9.90922 0.500234C9.84922 0.500234 9.77922 0.490234 9.70922 0.490234V0.500234ZM3.63922 1.35023C3.44922 1.35023 3.24922 1.38023 3.04922 1.45023C2.04922 1.79023 1.32922 2.38023 0.969219 3.16023C0.619219 3.92023 0.639219 4.81023 1.00922 5.73023C2.09922 8.40023 3.62922 10.7402 5.55922 12.6602C7.44922 14.5402 9.77922 16.0902 12.4692 17.2502C12.7092 17.3502 12.9692 17.4102 13.1492 17.4502L13.3092 17.4902C13.3292 17.5002 13.3492 17.5002 13.3792 17.5002H13.3992C14.6692 17.5002 16.1892 16.3402 16.6492 15.0202C17.0592 13.8602 16.3092 13.2902 15.7092 12.8302L15.4692 12.6402C15.0592 12.3102 14.6292 12.0102 14.2092 11.7202L13.9492 11.5402C13.5261 11.2043 13.0088 11.0086 12.4692 10.9802C11.8592 10.9802 11.3192 11.3202 10.8792 11.9902C10.6792 12.2902 10.4492 12.4302 10.1492 12.4302C9.97922 12.4302 9.77922 12.3802 9.56922 12.2802C7.83922 11.4902 6.59922 10.2902 5.88922 8.70023C5.54922 7.93023 5.65922 7.43023 6.25922 7.02023C6.59922 6.79023 7.23922 6.36023 7.18922 5.53023C7.13922 4.59023 5.06922 1.76023 4.18922 1.44023C4.00922 1.37023 3.81922 1.34023 3.61922 1.34023L3.63922 1.35023ZM9.93922 2.67023C9.41922 2.67023 9.27922 3.03023 9.24922 3.25023C9.20922 3.46023 9.24922 3.64023 9.34922 3.78023C9.51922 4.01023 9.81922 4.06023 10.0692 4.09023C10.1392 4.10023 10.2092 4.11023 10.2692 4.12023C12.5392 4.63023 13.3092 5.43023 13.6792 7.68023C13.6892 7.74023 13.6992 7.80023 13.6992 7.88023C13.7192 8.15023 13.7492 8.71023 14.3492 8.71023C14.3992 8.71023 14.4492 8.71023 14.5092 8.70023C15.0692 8.61023 15.0492 8.10023 15.0492 7.86023C15.0492 7.79023 15.0392 7.72023 15.0492 7.68023C15.0492 7.67023 15.0492 7.66023 15.0492 7.65023C15.0692 5.25023 13.0292 3.06023 10.4992 2.75023C10.4492 2.74023 10.3892 2.73023 10.3392 2.72023C10.2092 2.70023 10.0892 2.68023 9.95922 2.68023L9.93922 2.67023ZM10.3492 4.91023C10.1292 4.92023 9.67922 4.93023 9.51922 5.39023C9.44922 5.60023 9.45922 5.79023 9.54922 5.94023C9.67922 6.16023 9.93922 6.23023 10.1792 6.27023C11.0292 6.41023 11.4692 6.88023 11.5492 7.75023C11.5892 8.16023 11.8592 8.44023 12.2192 8.44023C12.2492 8.44023 12.2692 8.44023 12.2992 8.44023C12.7192 8.39023 12.9292 8.08023 12.9092 7.52023C12.9192 6.93023 12.6092 6.27023 12.0892 5.74023C11.5692 5.21023 10.9292 4.91023 10.3592 4.92023L10.3492 4.91023Z" fill="#DBD8FF"/>
</g>
<defs>
<clipPath id="clip0_1190_338">
<rect width="18" height="18" fill="white"/>
</clipPath>
</defs>
</svg>
