<svg width="18" height="18" viewBox="0 0 18 18" fill="none" xmlns="http://www.w3.org/2000/svg">
<path d="M0.730816 8.70635L4.68082 10.1173L6.20982 14.8233C6.30782 15.1243 6.69282 15.2363 6.94882 15.0363L9.15082 13.3183C9.26491 13.2305 9.40394 13.1811 9.5479 13.1773C9.69185 13.1736 9.83328 13.2156 9.95182 13.2973L13.9228 16.0573C14.1958 16.2473 14.5838 16.1043 14.6518 15.7883L17.5608 2.39435C17.6358 2.04935 17.2808 1.76035 16.9378 1.88835L0.726816 7.87235C0.639682 7.90226 0.564135 7.95877 0.510828 8.03391C0.457521 8.10904 0.429143 8.19902 0.429695 8.29114C0.430248 8.38327 0.459703 8.47289 0.513907 8.54739C0.568111 8.62188 0.64333 8.67748 0.730816 8.70635ZM5.96382 9.36634L13.6838 4.81535C13.8228 4.73335 13.9648 4.91335 13.8458 5.01935L7.47482 10.6873C7.25082 10.8873 7.10682 11.1543 7.06582 11.4433L6.84882 12.9823C6.81982 13.1883 6.51882 13.2083 6.45882 13.0093L5.62382 10.2023C5.57832 10.0449 5.58711 9.87676 5.64879 9.72493C5.71046 9.57311 5.82142 9.44745 5.96382 9.36634Z" fill="#DBD8FF"/>
</svg>
