<svg width="18" height="18" viewBox="0 0 18 18" fill="none" xmlns="http://www.w3.org/2000/svg">
<g id="icon-instagram">
<path id="Vector" d="M6.05453 1.14258C4.75232 1.14258 3.50344 1.65988 2.58264 2.58068C1.66183 3.50149 1.14453 4.75037 1.14453 6.05258V11.9476C1.14453 13.2498 1.66183 14.4987 2.58264 15.4195C3.50344 16.3403 4.75232 16.8576 6.05453 16.8576H11.9475C13.2497 16.8576 14.4986 16.3403 15.4194 15.4195C16.3402 14.4987 16.8575 13.2498 16.8575 11.9476V6.05258C16.8575 4.75037 16.3402 3.50149 15.4194 2.58068C14.4986 1.65988 13.2497 1.14258 11.9475 1.14258H6.05453ZM6.05453 2.61558H11.9475C12.8592 2.61611 13.7333 2.9785 14.378 3.62313C15.0226 4.26777 15.385 5.14193 15.3855 6.05358V11.9486C15.3855 13.8446 13.8435 15.3866 11.9485 15.3866H6.05453C5.14323 15.3858 4.26947 15.0234 3.62508 14.379C2.98069 13.7346 2.61833 12.8609 2.61753 11.9496V6.05258C2.61833 5.1411 2.98083 4.2672 3.62544 3.62278C4.27004 2.97836 5.14305 2.61611 6.05453 2.61558ZM13.2245 4.25458C12.9355 4.25458 12.7015 4.48858 12.7015 4.77758C12.7015 5.06658 12.9355 5.30058 13.2245 5.30058C13.5135 5.30058 13.7475 5.06658 13.7475 4.77758C13.7475 4.48858 13.5135 4.25458 13.2245 4.25458ZM9.00153 5.07258C7.95975 5.07258 6.96059 5.48622 6.22366 6.22259C5.48673 6.95896 5.07233 7.9578 5.07153 8.99958C5.07206 10.0415 5.48635 11.0406 6.22331 11.7772C6.96027 12.5138 7.95958 12.9276 9.00153 12.9276C10.0431 12.927 11.0419 12.513 11.7785 11.7765C12.515 11.04 12.929 10.0412 12.9295 8.99958C12.929 7.95797 12.515 6.95918 11.7785 6.22265C11.0419 5.48612 10.0431 5.07311 9.00153 5.07258ZM9.00153 6.54558C9.65206 6.5469 10.2756 6.80584 10.7357 7.26574C11.1958 7.72564 11.4549 8.34905 11.4565 8.99958C11.4552 9.65028 11.1961 10.274 10.736 10.7341C10.2759 11.1942 9.65223 11.4533 9.00153 11.4546C8.35048 11.4538 7.7263 11.1949 7.26575 10.7348C6.8052 10.2746 6.54585 9.65062 6.54453 8.99958C6.54585 8.34853 6.8052 7.72456 7.26575 7.26439C7.7263 6.80421 8.35048 6.54637 9.00153 6.54558Z" fill="#DBD8FF"/>
</g>
</svg>
