<svg width="302" height="298" viewBox="0 0 302 298" fill="none" xmlns="http://www.w3.org/2000/svg">
<rect width="302" height="298" rx="87" fill="#111111"/>
<path d="M87.8139 113.182V183H73.4957L45.7116 142.705H45.2685V183H28.3935V113.182H42.9162L70.3935 153.409H70.973V113.182H87.8139ZM124.232 183H98.4247V113.182H124.197C131.311 113.182 137.436 114.58 142.572 117.375C147.732 120.148 151.709 124.148 154.504 129.375C157.3 134.58 158.697 140.807 158.697 148.057C158.697 155.33 157.3 161.58 154.504 166.807C151.732 172.034 147.766 176.045 142.607 178.841C137.447 181.614 131.322 183 124.232 183ZM115.3 168.614H123.584C127.493 168.614 130.8 167.955 133.504 166.636C136.232 165.295 138.288 163.125 139.675 160.125C141.084 157.102 141.788 153.08 141.788 148.057C141.788 143.034 141.084 139.034 139.675 136.057C138.266 133.057 136.186 130.898 133.436 129.58C130.709 128.239 127.345 127.568 123.345 127.568H115.3V168.614ZM193.027 183.989C187.55 183.989 182.822 182.909 178.845 180.75C174.891 178.568 171.845 175.466 169.709 171.443C167.595 167.398 166.538 162.591 166.538 157.023C166.538 151.614 167.607 146.886 169.743 142.841C171.879 138.773 174.891 135.614 178.777 133.364C182.663 131.091 187.243 129.955 192.516 129.955C196.243 129.955 199.652 130.534 202.743 131.693C205.834 132.852 208.504 134.568 210.754 136.841C213.004 139.114 214.754 141.92 216.004 145.261C217.254 148.58 217.879 152.386 217.879 156.682V160.841H172.368V151.159H202.368C202.345 149.386 201.925 147.807 201.107 146.42C200.288 145.034 199.163 143.955 197.732 143.182C196.322 142.386 194.697 141.989 192.857 141.989C190.993 141.989 189.322 142.409 187.845 143.25C186.368 144.068 185.197 145.193 184.334 146.625C183.47 148.034 183.016 149.636 182.97 151.432V161.284C182.97 163.42 183.391 165.295 184.232 166.909C185.072 168.5 186.266 169.739 187.811 170.625C189.357 171.511 191.197 171.955 193.334 171.955C194.811 171.955 196.152 171.75 197.357 171.341C198.561 170.932 199.595 170.33 200.459 169.534C201.322 168.739 201.97 167.761 202.402 166.602L217.709 167.045C217.072 170.477 215.675 173.466 213.516 176.011C211.379 178.534 208.572 180.5 205.095 181.909C201.618 183.295 197.595 183.989 193.027 183.989ZM275.783 130.636L257.817 183H238.726L220.794 130.636H238.351L247.999 166.705H248.544L258.226 130.636H275.783Z" fill="url(#paint0_linear_958_108)"/>
<defs>
<linearGradient id="paint0_linear_958_108" x1="23" y1="110" x2="227.06" y2="266.179" gradientUnits="userSpaceOnUse">
<stop stop-color="#FE0190"/>
<stop offset="1" stop-color="#D016FF"/>
</linearGradient>
</defs>
</svg>
