<svg width="141" height="44" viewBox="0 0 141 44" fill="none" xmlns="http://www.w3.org/2000/svg">
<path d="M19.3271 11.0845C19.2205 9.91264 18.7464 9.00177 17.9048 8.35192C17.0739 7.69141 15.886 7.36115 14.3413 7.36115C13.3185 7.36115 12.4663 7.49432 11.7844 7.76065C11.1026 8.02699 10.5913 8.39453 10.2504 8.86328C9.90945 9.32138 9.73367 9.84872 9.72301 10.4453C9.7017 10.9354 9.79759 11.3668 10.0107 11.7397C10.2344 12.1126 10.554 12.4428 10.9695 12.7305C11.3956 13.0075 11.907 13.2525 12.5036 13.4656C13.1001 13.6786 13.7713 13.8651 14.517 14.0249L17.3295 14.6641C18.9489 15.0156 20.3764 15.4844 21.6122 16.0703C22.8587 16.6562 23.9027 17.354 24.7443 18.1637C25.5966 18.9734 26.2411 19.9055 26.6779 20.9602C27.1147 22.0149 27.3384 23.1974 27.3491 24.5078C27.3384 26.5746 26.8164 28.3484 25.783 29.8292C24.7496 31.31 23.2635 32.4446 21.3246 33.233C19.3963 34.0213 17.0685 34.4155 14.3413 34.4155C11.6033 34.4155 9.21697 34.0053 7.18217 33.185C5.14737 32.3647 3.56534 31.1183 2.43608 29.4457C1.30682 27.7731 0.726207 25.6584 0.694247 23.1016H8.26882C8.33274 24.1562 8.61506 25.0352 9.11577 25.7383C9.61648 26.4414 10.3036 26.9741 11.1772 27.3363C12.0614 27.6985 13.0842 27.8796 14.2454 27.8796C15.3107 27.8796 16.2163 27.7358 16.962 27.4482C17.7184 27.1605 18.299 26.761 18.7038 26.2496C19.1087 25.7383 19.3164 25.1523 19.3271 24.4918C19.3164 23.8739 19.1246 23.3466 18.7518 22.9098C18.3789 22.4624 17.8036 22.0788 17.0259 21.7592C16.2589 21.429 15.2788 21.1254 14.0856 20.8484L10.6658 20.0494C7.83203 19.3995 5.60014 18.3501 3.97017 16.9013C2.3402 15.4418 1.53054 13.4709 1.54119 10.9886C1.53054 8.96449 2.07386 7.1907 3.17116 5.66726C4.26847 4.14382 5.78658 2.95597 7.7255 2.10369C9.66442 1.25142 11.875 0.825283 14.3572 0.825283C16.8928 0.825283 19.0927 1.25675 20.957 2.11967C22.832 2.97195 24.2862 4.17045 25.3196 5.7152C26.353 7.25994 26.8803 9.04971 26.9016 11.0845H19.3271ZM31.3441 43.2045V9.45454H39.0785V13.6573H39.3182C39.6378 12.9116 40.0906 12.1925 40.6765 11.5C41.2731 10.8075 42.0295 10.2429 42.9457 9.80611C43.8725 9.35866 44.9805 9.13494 46.2695 9.13494C47.9741 9.13494 49.5668 9.58239 51.0476 10.4773C52.5391 11.3722 53.7429 12.7518 54.6591 14.6161C55.5753 16.4805 56.0334 18.8562 56.0334 21.7433C56.0334 24.5238 55.5913 26.8516 54.707 28.7266C53.8335 30.6016 52.6509 32.0078 51.1594 32.9453C49.6786 33.8828 48.0327 34.3516 46.2216 34.3516C44.9858 34.3516 43.9151 34.1491 43.0096 33.7443C42.104 33.3395 41.3423 32.8068 40.7244 32.1463C40.1172 31.4858 39.6484 30.7773 39.3182 30.021H39.1584V43.2045H31.3441ZM38.9986 21.7273C38.9986 23.0483 39.1744 24.1989 39.5259 25.179C39.8881 26.1591 40.4048 26.9208 41.076 27.4641C41.7578 27.9968 42.5728 28.2631 43.521 28.2631C44.4798 28.2631 45.2947 27.9968 45.9659 27.4641C46.6371 26.9208 47.1431 26.1591 47.484 25.179C47.8356 24.1989 48.0114 23.0483 48.0114 21.7273C48.0114 20.4062 47.8356 19.261 47.484 18.2915C47.1431 17.3221 46.6371 16.571 45.9659 16.0384C45.3054 15.5057 44.4904 15.2393 43.521 15.2393C42.5621 15.2393 41.7472 15.5004 41.076 16.0224C40.4048 16.5444 39.8881 17.2901 39.5259 18.2596C39.1744 19.229 38.9986 20.3849 38.9986 21.7273ZM71.586 34.4634C69.0079 34.4634 66.792 33.9361 64.9383 32.8814C63.0953 31.8161 61.673 30.3352 60.6716 28.4389C59.6808 26.532 59.1855 24.3214 59.1855 21.8072C59.1855 19.2823 59.6808 17.0717 60.6716 15.1754C61.673 13.2685 63.0953 11.7876 64.9383 10.733C66.792 9.66761 69.0079 9.13494 71.586 9.13494C74.1642 9.13494 76.3747 9.66761 78.2178 10.733C80.0715 11.7876 81.4937 13.2685 82.4845 15.1754C83.4859 17.0717 83.9866 19.2823 83.9866 21.8072C83.9866 24.3214 83.4859 26.532 82.4845 28.4389C81.4937 30.3352 80.0715 31.8161 78.2178 32.8814C76.3747 33.9361 74.1642 34.4634 71.586 34.4634ZM71.634 28.5668C72.5715 28.5668 73.3651 28.2791 74.015 27.7038C74.6649 27.1286 75.1602 26.3295 75.5012 25.3068C75.8527 24.2841 76.0285 23.1016 76.0285 21.7592C76.0285 20.3956 75.8527 19.2024 75.5012 18.1797C75.1602 17.157 74.6649 16.358 74.015 15.7827C73.3651 15.2074 72.5715 14.9197 71.634 14.9197C70.6645 14.9197 69.8442 15.2074 69.173 15.7827C68.5125 16.358 68.0065 17.157 67.6549 18.1797C67.314 19.2024 67.1436 20.3956 67.1436 21.7592C67.1436 23.1016 67.314 24.2841 67.6549 25.3068C68.0065 26.3295 68.5125 27.1286 69.173 27.7038C69.8442 28.2791 70.6645 28.5668 71.634 28.5668ZM103.826 23.4052V9.45454H111.624V34H104.177V29.4297H103.922C103.378 30.9318 102.452 32.125 101.141 33.0092C99.8415 33.8828 98.2702 34.3196 96.4271 34.3196C94.7545 34.3196 93.2844 33.9361 92.0166 33.169C90.7488 32.402 89.7634 31.3313 89.0603 29.957C88.3572 28.5721 88.0003 26.9528 87.9896 25.0991V9.45454H95.8039V23.565C95.8145 24.8967 96.1661 25.946 96.8586 26.7131C97.551 27.4801 98.4939 27.8636 99.6871 27.8636C100.465 27.8636 101.163 27.6932 101.78 27.3523C102.409 27.0007 102.904 26.4947 103.267 25.8342C103.639 25.163 103.826 24.3533 103.826 23.4052ZM123.645 27.56L123.677 18.2436H124.764L131.667 9.45454H140.52L130.261 22.0469H128.2L123.645 27.56ZM116.598 34V1.27273H124.412V34H116.598ZM131.843 34L125.419 23.8047L130.565 18.2596L140.872 34H131.843Z" fill="url(#paint0_linear_500_15)"/>
<defs>
<linearGradient id="paint0_linear_500_15" x1="-1" y1="0" x2="96.0928" y2="90.209" gradientUnits="userSpaceOnUse">
<stop stop-color="#FE0190"/>
<stop offset="1" stop-color="#D016FF"/>
</linearGradient>
</defs>
</svg>
