<svg width="457" height="476" viewBox="0 0 457 476" fill="none" xmlns="http://www.w3.org/2000/svg">
<mask id="mask0_614_82" style="mask-type:alpha" maskUnits="userSpaceOnUse" x="0" y="0" width="457" height="476">
<rect width="456.821" height="476" fill="black"/>
</mask>
<g mask="url(#mask0_614_82)">
<g filter="url(#filter0_d_614_82)">
<rect y="281.59" width="217.077" height="194.41" rx="20" fill="#C343FF" shape-rendering="crispEdges"/>
<path d="M39.0511 335.09L35.3125 330.13H34.4716V335.09H32.0114V323.453H34.4716V328.101H34.9659L38.8295 323.453H41.892L37.3523 328.851L42.1023 335.09H39.0511ZM46.5966 335.26C45.714 335.26 44.9508 335.073 44.3068 334.698C43.6667 334.319 43.1723 333.792 42.8239 333.118C42.4754 332.44 42.3011 331.654 42.3011 330.76C42.3011 329.859 42.4754 329.071 42.8239 328.397C43.1723 327.719 43.6667 327.192 44.3068 326.817C44.9508 326.438 45.714 326.249 46.5966 326.249C47.4792 326.249 48.2405 326.438 48.8807 326.817C49.5246 327.192 50.0208 327.719 50.3693 328.397C50.7178 329.071 50.892 329.859 50.892 330.76C50.892 331.654 50.7178 332.44 50.3693 333.118C50.0208 333.792 49.5246 334.319 48.8807 334.698C48.2405 335.073 47.4792 335.26 46.5966 335.26ZM46.608 333.385C47.0095 333.385 47.3447 333.272 47.6136 333.044C47.8826 332.813 48.0852 332.499 48.2216 332.101C48.3617 331.703 48.4318 331.251 48.4318 330.743C48.4318 330.236 48.3617 329.783 48.2216 329.385C48.0852 328.988 47.8826 328.673 47.6136 328.442C47.3447 328.211 47.0095 328.096 46.608 328.096C46.2027 328.096 45.8617 328.211 45.5852 328.442C45.3125 328.673 45.1061 328.988 44.9659 329.385C44.8295 329.783 44.7614 330.236 44.7614 330.743C44.7614 331.251 44.8295 331.703 44.9659 332.101C45.1061 332.499 45.3125 332.813 45.5852 333.044C45.8617 333.272 46.2027 333.385 46.608 333.385ZM57.625 332.414L59.9886 326.363H61.8295L58.4261 335.09H56.8182L53.4943 326.363H55.3295L57.625 332.414ZM54.7784 326.363V335.09H52.4659V326.363H54.7784ZM60.5909 335.09V326.363H62.875V335.09H60.5909ZM67.2358 335.255C66.679 335.255 66.1828 335.158 65.7472 334.965C65.3116 334.768 64.9669 334.478 64.7131 334.096C64.4631 333.709 64.3381 333.228 64.3381 332.652C64.3381 332.167 64.4271 331.76 64.6051 331.431C64.7831 331.101 65.0256 330.836 65.3324 330.635C65.6392 330.435 65.9877 330.283 66.3778 330.181C66.7718 330.078 67.1847 330.007 67.6165 329.965C68.1241 329.912 68.5331 329.863 68.8438 329.817C69.1544 329.768 69.3797 329.696 69.5199 329.601C69.66 329.507 69.7301 329.366 69.7301 329.181V329.147C69.7301 328.787 69.6165 328.508 69.3892 328.311C69.1657 328.114 68.8475 328.016 68.4347 328.016C67.9991 328.016 67.6525 328.113 67.3949 328.306C67.1373 328.495 66.9669 328.734 66.8835 329.022L64.6449 328.84C64.7585 328.31 64.982 327.851 65.3153 327.465C65.6487 327.075 66.0786 326.775 66.6051 326.567C67.1354 326.355 67.7491 326.249 68.446 326.249C68.9309 326.249 69.3949 326.306 69.8381 326.419C70.285 326.533 70.6809 326.709 71.0256 326.948C71.3741 327.186 71.6487 327.493 71.8494 327.868C72.0502 328.239 72.1506 328.685 72.1506 329.203V335.09H69.8551V333.88H69.7869C69.6468 334.152 69.4593 334.393 69.2244 334.601C68.9896 334.806 68.7074 334.967 68.3778 335.084C68.0483 335.198 67.6676 335.255 67.2358 335.255ZM67.929 333.584C68.285 333.584 68.5994 333.514 68.8722 333.374C69.1449 333.23 69.3589 333.037 69.5142 332.794C69.6695 332.552 69.7472 332.277 69.7472 331.971V331.044C69.6714 331.094 69.5672 331.139 69.4347 331.181C69.3059 331.219 69.16 331.255 68.9972 331.289C68.8343 331.319 68.6714 331.347 68.5085 331.374C68.3456 331.397 68.1979 331.417 68.0653 331.436C67.7813 331.478 67.5331 331.544 67.321 331.635C67.1089 331.726 66.9441 331.849 66.8267 332.005C66.7093 332.156 66.6506 332.346 66.6506 332.573C66.6506 332.902 66.7699 333.154 67.0085 333.328C67.2509 333.499 67.5578 333.584 67.929 333.584ZM80.1023 329.76V331.664H75.5455V329.76H80.1023ZM76.3409 326.363V335.09H74.0284V326.363H76.3409ZM81.6193 326.363V335.09H79.3239V326.363H81.6193ZM82.8153 337.647V333.169H83.4858C83.679 333.048 83.8343 332.855 83.9517 332.59C84.0729 332.325 84.1714 332.012 84.2472 331.652C84.3267 331.292 84.3873 330.904 84.429 330.488C84.4744 330.067 84.5142 329.643 84.5483 329.215L84.7756 326.363H91.4688V333.169H92.821V337.647H90.5142V335.09H85.179V337.647H82.8153ZM85.8949 333.169H89.1847V328.226H86.8324L86.7415 329.215C86.6771 330.147 86.5843 330.938 86.4631 331.59C86.3419 332.238 86.1525 332.764 85.8949 333.169ZM96.7202 335.255C96.1634 335.255 95.6671 335.158 95.2315 334.965C94.7959 334.768 94.4512 334.478 94.1974 334.096C93.9474 333.709 93.8224 333.228 93.8224 332.652C93.8224 332.167 93.9115 331.76 94.0895 331.431C94.2675 331.101 94.5099 330.836 94.8168 330.635C95.1236 330.435 95.4721 330.283 95.8622 330.181C96.2562 330.078 96.669 330.007 97.1009 329.965C97.6084 329.912 98.0175 329.863 98.3281 329.817C98.6387 329.768 98.8641 329.696 99.0043 329.601C99.1444 329.507 99.2145 329.366 99.2145 329.181V329.147C99.2145 328.787 99.1009 328.508 98.8736 328.311C98.6501 328.114 98.3319 328.016 97.919 328.016C97.4834 328.016 97.1368 328.113 96.8793 328.306C96.6217 328.495 96.4512 328.734 96.3679 329.022L94.1293 328.84C94.2429 328.31 94.4664 327.851 94.7997 327.465C95.133 327.075 95.563 326.775 96.0895 326.567C96.6198 326.355 97.2334 326.249 97.9304 326.249C98.4152 326.249 98.8793 326.306 99.3224 326.419C99.7694 326.533 100.165 326.709 100.51 326.948C100.858 327.186 101.133 327.493 101.334 327.868C101.535 328.239 101.635 328.685 101.635 329.203V335.09H99.3395V333.88H99.2713C99.1312 334.152 98.9437 334.393 98.7088 334.601C98.474 334.806 98.1918 334.967 97.8622 335.084C97.5327 335.198 97.152 335.255 96.7202 335.255ZM97.4134 333.584C97.7694 333.584 98.0838 333.514 98.3565 333.374C98.6293 333.23 98.8433 333.037 98.9986 332.794C99.1539 332.552 99.2315 332.277 99.2315 331.971V331.044C99.1558 331.094 99.0516 331.139 98.919 331.181C98.7902 331.219 98.6444 331.255 98.4815 331.289C98.3187 331.319 98.1558 331.347 97.9929 331.374C97.83 331.397 97.6823 331.417 97.5497 331.436C97.2656 331.478 97.0175 331.544 96.8054 331.635C96.5933 331.726 96.4285 331.849 96.3111 332.005C96.1937 332.156 96.1349 332.346 96.1349 332.573C96.1349 332.902 96.2543 333.154 96.4929 333.328C96.7353 333.499 97.0421 333.584 97.4134 333.584Z" fill="#363636"/>
<path d="M38.7812 354.363V363.09H37.4688V355.488H33.3608V363.09H32.0483V354.363H38.7812ZM40.6925 365.544V356.544H41.9368V357.605H42.0433C42.1172 357.469 42.2237 357.311 42.3629 357.132C42.5021 356.953 42.6953 356.797 42.9425 356.664C43.1896 356.527 43.5163 356.459 43.9226 356.459C44.451 356.459 44.9226 356.593 45.3374 356.86C45.7521 357.127 46.0774 357.512 46.3132 358.015C46.5518 358.517 46.6712 359.123 46.6712 359.83C46.6712 360.537 46.5533 361.144 46.3175 361.65C46.0817 362.152 45.7578 362.54 45.3459 362.813C44.9339 363.083 44.4638 363.218 43.9354 363.218C43.5376 363.218 43.2124 363.151 42.9595 363.017C42.7095 362.884 42.5135 362.728 42.3714 362.549C42.2294 362.37 42.12 362.211 42.0433 362.071H41.9666V365.544H40.6925ZM41.9411 359.817C41.9411 360.277 42.0078 360.681 42.1413 361.027C42.2749 361.374 42.468 361.645 42.7209 361.841C42.9737 362.034 43.2834 362.131 43.6499 362.131C44.0305 362.131 44.3487 362.03 44.6044 361.828C44.8601 361.624 45.0533 361.347 45.1839 360.998C45.3175 360.648 45.3842 360.255 45.3842 359.817C45.3842 359.385 45.3189 358.998 45.1882 358.654C45.0604 358.31 44.8672 358.039 44.6087 357.84C44.353 357.641 44.0334 357.542 43.6499 357.542C43.2805 357.542 42.968 357.637 42.7124 357.827C42.4595 358.017 42.2678 358.283 42.1371 358.624C42.0064 358.965 41.9411 359.363 41.9411 359.817ZM50.8558 363.222C50.2422 363.222 49.7067 363.081 49.2493 362.8C48.7919 362.519 48.4368 362.125 48.1839 361.62C47.9311 361.114 47.8047 360.523 47.8047 359.847C47.8047 359.168 47.9311 358.574 48.1839 358.066C48.4368 357.557 48.7919 357.162 49.2493 356.881C49.7067 356.6 50.2422 356.459 50.8558 356.459C51.4695 356.459 52.005 356.6 52.4624 356.881C52.9197 357.162 53.2749 357.557 53.5277 358.066C53.7805 358.574 53.907 359.168 53.907 359.847C53.907 360.523 53.7805 361.114 53.5277 361.62C53.2749 362.125 52.9197 362.519 52.4624 362.8C52.005 363.081 51.4695 363.222 50.8558 363.222ZM50.8601 362.152C51.2578 362.152 51.5874 362.047 51.8487 361.837C52.1101 361.627 52.3033 361.347 52.4283 360.998C52.5561 360.648 52.62 360.263 52.62 359.843C52.62 359.425 52.5561 359.042 52.4283 358.692C52.3033 358.34 52.1101 358.057 51.8487 357.844C51.5874 357.631 51.2578 357.525 50.8601 357.525C50.4595 357.525 50.1271 357.631 49.8629 357.844C49.6016 358.057 49.407 358.34 49.2791 358.692C49.1541 359.042 49.0916 359.425 49.0916 359.843C49.0916 360.263 49.1541 360.648 49.2791 360.998C49.407 361.347 49.6016 361.627 49.8629 361.837C50.1271 362.047 50.4595 362.152 50.8601 362.152ZM58.0863 363.222C57.4528 363.222 56.9073 363.078 56.4499 362.792C55.9954 362.502 55.646 362.103 55.4016 361.594C55.1573 361.086 55.0352 360.503 55.0352 359.847C55.0352 359.182 55.1602 358.596 55.4102 358.087C55.6602 357.576 56.0124 357.176 56.467 356.89C56.9215 356.603 57.457 356.459 58.0735 356.459C58.5707 356.459 59.0138 356.551 59.4031 356.736C59.7923 356.918 60.1062 357.174 60.3448 357.503C60.5863 357.833 60.7298 358.218 60.7752 358.658H59.5352C59.467 358.351 59.3107 358.087 59.0664 357.865C58.8249 357.644 58.5011 357.533 58.0948 357.533C57.7397 357.533 57.4286 357.627 57.1616 357.814C56.8974 357.999 56.6914 358.263 56.5437 358.607C56.396 358.948 56.3221 359.351 56.3221 359.817C56.3221 360.294 56.3945 360.706 56.5394 361.053C56.6843 361.4 56.8888 361.668 57.1531 361.858C57.4201 362.049 57.734 362.144 58.0948 362.144C58.3363 362.144 58.555 362.1 58.7511 362.012C58.9499 361.921 59.1161 361.792 59.2496 361.624C59.386 361.456 59.4812 361.255 59.5352 361.019H60.7752C60.7298 361.442 60.592 361.82 60.3619 362.152C60.1317 362.485 59.8235 362.746 59.4371 362.936C59.0536 363.127 58.6033 363.222 58.0863 363.222ZM61.6424 357.644V356.544H67.1651V357.644H65.0302V363.09H63.7859V357.644H61.6424ZM68.5128 363.09V356.544H69.7869V363.09H68.5128ZM69.1562 355.534C68.9347 355.534 68.7443 355.461 68.5852 355.313C68.429 355.162 68.3509 354.983 68.3509 354.776C68.3509 354.566 68.429 354.387 68.5852 354.239C68.7443 354.088 68.9347 354.013 69.1562 354.013C69.3778 354.013 69.5668 354.088 69.723 354.239C69.8821 354.387 69.9616 354.566 69.9616 354.776C69.9616 354.983 69.8821 355.162 69.723 355.313C69.5668 355.461 69.3778 355.534 69.1562 355.534ZM71.5011 365.544V356.544H72.7454V357.605H72.8519C72.9258 357.469 73.0323 357.311 73.1715 357.132C73.3107 356.953 73.5039 356.797 73.7511 356.664C73.9982 356.527 74.3249 356.459 74.7312 356.459C75.2596 356.459 75.7312 356.593 76.146 356.86C76.5607 357.127 76.886 357.512 77.1218 358.015C77.3604 358.517 77.4798 359.123 77.4798 359.83C77.4798 360.537 77.3619 361.144 77.1261 361.65C76.8903 362.152 76.5664 362.54 76.1545 362.813C75.7425 363.083 75.2724 363.218 74.744 363.218C74.3462 363.218 74.021 363.151 73.7681 363.017C73.5181 362.884 73.3221 362.728 73.18 362.549C73.038 362.37 72.9286 362.211 72.8519 362.071H72.7752V365.544H71.5011ZM72.7496 359.817C72.7496 360.277 72.8164 360.681 72.9499 361.027C73.0835 361.374 73.2766 361.645 73.5295 361.841C73.7823 362.034 74.092 362.131 74.4585 362.131C74.8391 362.131 75.1573 362.03 75.413 361.828C75.6687 361.624 75.8619 361.347 75.9925 360.998C76.1261 360.648 76.1928 360.255 76.1928 359.817C76.1928 359.385 76.1275 358.998 75.9968 358.654C75.869 358.31 75.6758 358.039 75.4173 357.84C75.1616 357.641 74.842 357.542 74.4585 357.542C74.0891 357.542 73.7766 357.637 73.521 357.827C73.2681 358.017 73.0763 358.283 72.9457 358.624C72.815 358.965 72.7496 359.363 72.7496 359.817ZM80.565 361.897L80.5011 362.361C80.4585 362.702 80.386 363.057 80.2837 363.426C80.1843 363.799 80.0806 364.144 79.9727 364.462C79.8675 364.78 79.7809 365.033 79.7127 365.221H78.8093C78.8462 365.044 78.8974 364.806 78.9627 364.505C79.0281 364.206 79.092 363.873 79.1545 363.503C79.217 363.134 79.2638 362.757 79.2951 362.374L79.3377 361.897H80.565ZM85.3995 363.09V356.544H88.114C88.8526 356.544 89.4379 356.702 89.8697 357.017C90.3015 357.33 90.5174 357.755 90.5174 358.292C90.5174 358.675 90.3952 358.979 90.1509 359.203C89.9066 359.428 89.5827 359.578 89.1793 359.655C89.4719 359.689 89.7404 359.777 89.9847 359.919C90.229 360.059 90.4251 360.246 90.5728 360.482C90.7234 360.718 90.7987 360.999 90.7987 361.326C90.7987 361.672 90.7092 361.979 90.5302 362.246C90.3512 362.51 90.0913 362.718 89.7504 362.868C89.4123 363.016 89.0046 363.09 88.5273 363.09H85.3995ZM86.5969 362.025H88.5273C88.8427 362.025 89.0898 361.949 89.2688 361.799C89.4478 361.648 89.5373 361.444 89.5373 361.185C89.5373 360.881 89.4478 360.642 89.2688 360.469C89.0898 360.293 88.8427 360.205 88.5273 360.205H86.5969V362.025ZM86.5969 359.272H88.1268C88.3654 359.272 88.57 359.238 88.7404 359.169C88.9137 359.101 89.0458 359.005 89.1367 358.88C89.2305 358.752 89.2773 358.601 89.2773 358.428C89.2773 358.175 89.1737 357.978 88.9663 357.836C88.7589 357.694 88.4748 357.623 88.114 357.623H86.5969V359.272ZM99.2756 363.09V357.631H97.7074C97.3352 357.631 97.0455 357.718 96.8381 357.891C96.6307 358.064 96.527 358.292 96.527 358.573C96.527 358.851 96.6222 359.076 96.8125 359.246C97.0057 359.414 97.2756 359.498 97.6222 359.498H99.6463V360.529H97.6222C97.1392 360.529 96.7216 360.449 96.3693 360.29C96.0199 360.128 95.75 359.9 95.5597 359.604C95.3722 359.309 95.2784 358.959 95.2784 358.556C95.2784 358.144 95.375 357.789 95.5682 357.49C95.7642 357.189 96.044 356.956 96.4077 356.792C96.7741 356.627 97.2074 356.544 97.7074 356.544H100.473V363.09H99.2756ZM94.9801 363.09L96.8253 359.783H98.1293L96.2841 363.09H94.9801ZM102.169 363.09V356.544H103.443V359.289H104.057L106.217 356.544H107.794L105.259 359.728L107.824 363.09H106.243L104.27 360.473H103.443V363.09H102.169ZM111.301 363.222C110.688 363.222 110.152 363.081 109.695 362.8C109.237 362.519 108.882 362.125 108.629 361.62C108.376 361.114 108.25 360.523 108.25 359.847C108.25 359.168 108.376 358.574 108.629 358.066C108.882 357.557 109.237 357.162 109.695 356.881C110.152 356.6 110.688 356.459 111.301 356.459C111.915 356.459 112.45 356.6 112.908 356.881C113.365 357.162 113.72 357.557 113.973 358.066C114.226 358.574 114.352 359.168 114.352 359.847C114.352 360.523 114.226 361.114 113.973 361.62C113.72 362.125 113.365 362.519 112.908 362.8C112.45 363.081 111.915 363.222 111.301 363.222ZM111.305 362.152C111.703 362.152 112.033 362.047 112.294 361.837C112.555 361.627 112.749 361.347 112.874 360.998C113.001 360.648 113.065 360.263 113.065 359.843C113.065 359.425 113.001 359.042 112.874 358.692C112.749 358.34 112.555 358.057 112.294 357.844C112.033 357.631 111.703 357.525 111.305 357.525C110.905 357.525 110.572 357.631 110.308 357.844C110.047 358.057 109.852 358.34 109.724 358.692C109.599 359.042 109.537 359.425 109.537 359.843C109.537 360.263 109.599 360.648 109.724 360.998C109.852 361.347 110.047 361.627 110.308 361.837C110.572 362.047 110.905 362.152 111.305 362.152ZM119.448 361.513L121.561 356.544H122.661L119.921 363.09H118.975L116.29 356.544H117.377L119.448 361.513ZM117.023 356.544V363.09H115.775V356.544H117.023ZM121.907 363.09V356.544H123.147V363.09H121.907ZM125.416 365.544C125.225 365.544 125.052 365.529 124.896 365.498C124.74 365.469 124.623 365.438 124.547 365.404L124.853 364.36C125.086 364.422 125.294 364.449 125.475 364.441C125.657 364.432 125.818 364.364 125.957 364.236C126.099 364.108 126.224 363.9 126.332 363.61L126.49 363.175L124.095 356.544H125.458L127.116 361.624H127.184L128.842 356.544H130.21L127.512 363.963C127.387 364.304 127.228 364.593 127.035 364.828C126.842 365.067 126.612 365.246 126.345 365.365C126.078 365.485 125.768 365.544 125.416 365.544ZM134.195 361.36H135.499C135.516 361.627 135.637 361.833 135.862 361.978C136.089 362.123 136.383 362.195 136.744 362.195C137.11 362.195 137.423 362.117 137.681 361.961C137.94 361.801 138.069 361.556 138.069 361.223C138.069 361.025 138.019 360.851 137.92 360.703C137.823 360.553 137.685 360.436 137.506 360.354C137.33 360.272 137.121 360.23 136.88 360.23H135.815V359.229H136.88C137.241 359.229 137.511 359.147 137.69 358.982C137.869 358.817 137.958 358.611 137.958 358.364C137.958 358.097 137.862 357.882 137.668 357.721C137.478 357.556 137.212 357.473 136.871 357.473C136.525 357.473 136.237 357.551 136.006 357.708C135.776 357.861 135.656 358.06 135.644 358.304H134.357C134.366 357.938 134.477 357.617 134.69 357.341C134.906 357.063 135.195 356.847 135.559 356.694C135.925 356.537 136.342 356.459 136.808 356.459C137.293 356.459 137.714 356.537 138.069 356.694C138.424 356.85 138.698 357.066 138.891 357.341C139.087 357.617 139.185 357.934 139.185 358.292C139.185 358.652 139.077 358.948 138.862 359.178C138.648 359.405 138.37 359.569 138.026 359.668V359.736C138.279 359.753 138.504 359.83 138.7 359.966C138.896 360.103 139.049 360.283 139.16 360.507C139.271 360.732 139.326 360.986 139.326 361.27C139.326 361.671 139.215 362.017 138.994 362.31C138.775 362.603 138.471 362.828 138.082 362.988C137.695 363.144 137.254 363.222 136.756 363.222C136.273 363.222 135.84 363.147 135.457 362.996C135.076 362.843 134.773 362.627 134.549 362.348C134.327 362.07 134.21 361.74 134.195 361.36ZM144.315 361.513L146.429 356.544H147.528L144.788 363.09H143.842L141.157 356.544H142.244L144.315 361.513ZM141.89 356.544V363.09H140.642V356.544H141.89ZM146.774 363.09V356.544H148.014V363.09H146.774ZM152.469 363.222C151.855 363.222 151.32 363.081 150.863 362.8C150.405 362.519 150.05 362.125 149.797 361.62C149.544 361.114 149.418 360.523 149.418 359.847C149.418 359.168 149.544 358.574 149.797 358.066C150.05 357.557 150.405 357.162 150.863 356.881C151.32 356.6 151.855 356.459 152.469 356.459C153.083 356.459 153.618 356.6 154.076 356.881C154.533 357.162 154.888 357.557 155.141 358.066C155.394 358.574 155.52 359.168 155.52 359.847C155.52 360.523 155.394 361.114 155.141 361.62C154.888 362.125 154.533 362.519 154.076 362.8C153.618 363.081 153.083 363.222 152.469 363.222ZM152.473 362.152C152.871 362.152 153.201 362.047 153.462 361.837C153.723 361.627 153.917 361.347 154.042 360.998C154.169 360.648 154.233 360.263 154.233 359.843C154.233 359.425 154.169 359.042 154.042 358.692C153.917 358.34 153.723 358.057 153.462 357.844C153.201 357.631 152.871 357.525 152.473 357.525C152.073 357.525 151.74 357.631 151.476 357.844C151.215 358.057 151.02 358.34 150.892 358.692C150.767 359.042 150.705 359.425 150.705 359.843C150.705 360.263 150.767 360.648 150.892 360.998C151.02 361.347 151.215 361.627 151.476 361.837C151.74 362.047 152.073 362.152 152.473 362.152ZM156.267 363.09L158.803 359.74L156.297 356.544H157.78L159.804 359.263H160.26V356.544H161.534V359.263H161.977L164.001 356.544H165.484L162.991 359.74L165.514 363.09H164.001L161.96 360.363H161.534V363.09H160.26V360.363H159.834L157.78 363.09H156.267ZM169.373 363.222C168.728 363.222 168.173 363.084 167.707 362.809C167.244 362.53 166.886 362.14 166.633 361.637C166.383 361.131 166.258 360.539 166.258 359.86C166.258 359.189 166.383 358.598 166.633 358.087C166.886 357.576 167.238 357.176 167.69 356.89C168.144 356.603 168.675 356.459 169.283 356.459C169.653 356.459 170.011 356.52 170.357 356.642C170.704 356.765 171.015 356.956 171.29 357.218C171.566 357.479 171.783 357.819 171.942 358.236C172.102 358.651 172.181 359.155 172.181 359.749V360.201H166.978V359.246H170.933C170.933 358.911 170.864 358.614 170.728 358.355C170.592 358.094 170.4 357.888 170.153 357.738C169.908 357.587 169.621 357.512 169.292 357.512C168.934 357.512 168.621 357.6 168.354 357.776C168.09 357.949 167.886 358.176 167.741 358.458C167.599 358.736 167.528 359.039 167.528 359.365V360.111C167.528 360.549 167.604 360.921 167.758 361.228C167.914 361.534 168.131 361.769 168.41 361.931C168.688 362.09 169.013 362.169 169.386 362.169C169.627 362.169 169.847 362.135 170.046 362.067C170.245 361.996 170.417 361.891 170.562 361.752C170.707 361.613 170.817 361.441 170.894 361.236L172.1 361.453C172.004 361.809 171.83 362.12 171.58 362.387C171.333 362.651 171.022 362.857 170.647 363.005C170.275 363.15 169.85 363.222 169.373 363.222ZM173.595 356.544H174.843V361.986H177.106V356.544H178.355V361.986H180.618V356.544H181.866V363.09H173.595V356.544Z" fill="#363636"/>
<path d="M31.8565 368.544H33.1051V373.986H35.3679V368.544H36.6165V373.986H38.8793V368.544H40.1278V375.09H31.8565V368.544ZM41.8292 375.09V368.544H44.5437C45.2823 368.544 45.8675 368.702 46.2994 369.017C46.7312 369.33 46.9471 369.755 46.9471 370.292C46.9471 370.675 46.8249 370.979 46.5806 371.203C46.3363 371.428 46.0124 371.578 45.609 371.655C45.9016 371.689 46.1701 371.777 46.4144 371.919C46.6587 372.059 46.8548 372.246 47.0025 372.482C47.1531 372.718 47.2283 372.999 47.2283 373.326C47.2283 373.672 47.1388 373.979 46.9599 374.246C46.7809 374.51 46.521 374.718 46.18 374.868C45.842 375.016 45.4343 375.09 44.957 375.09H41.8292ZM43.0266 374.025H44.957C45.2724 374.025 45.5195 373.949 45.6985 373.799C45.8775 373.648 45.967 373.444 45.967 373.185C45.967 372.881 45.8775 372.642 45.6985 372.469C45.5195 372.293 45.2724 372.205 44.957 372.205H43.0266V374.025ZM43.0266 371.272H44.5565C44.7951 371.272 44.9996 371.238 45.1701 371.169C45.3434 371.101 45.4755 371.005 45.5664 370.88C45.6602 370.752 45.707 370.601 45.707 370.428C45.707 370.175 45.6033 369.978 45.396 369.836C45.1886 369.694 44.9045 369.623 44.5437 369.623H43.0266V371.272ZM49.8746 373.304L52.7596 368.544H54.1317V375.09H52.8832V370.326L50.011 375.09H48.6261V368.544H49.8746V373.304ZM55.2056 376.978V373.986H55.7383C55.8746 373.861 55.9897 373.712 56.0835 373.539C56.18 373.365 56.261 373.159 56.3263 372.921C56.3945 372.682 56.4513 372.404 56.4968 372.086C56.5423 371.765 56.582 371.398 56.6161 370.986L56.8207 368.544H61.2695V373.986H62.2752V376.978H61.0309V375.09H56.467V376.978H55.2056ZM57.1019 373.986H60.0252V369.635H57.9627L57.8263 370.986C57.761 371.674 57.6786 372.27 57.5792 372.776C57.4798 373.279 57.3207 373.682 57.1019 373.986ZM63.5206 375.09V368.544H64.7947V371.289H65.4084L67.5689 368.544H69.1456L66.6101 371.728L69.1754 375.09H67.5945L65.6214 372.473H64.7947V375.09H63.5206ZM72.6527 375.222C72.0391 375.222 71.5036 375.081 71.0462 374.8C70.5888 374.519 70.2337 374.125 69.9808 373.62C69.728 373.114 69.6016 372.523 69.6016 371.847C69.6016 371.168 69.728 370.574 69.9808 370.066C70.2337 369.557 70.5888 369.162 71.0462 368.881C71.5036 368.6 72.0391 368.459 72.6527 368.459C73.2663 368.459 73.8018 368.6 74.2592 368.881C74.7166 369.162 75.0717 369.557 75.3246 370.066C75.5774 370.574 75.7038 371.168 75.7038 371.847C75.7038 372.523 75.5774 373.114 75.3246 373.62C75.0717 374.125 74.7166 374.519 74.2592 374.8C73.8018 375.081 73.2663 375.222 72.6527 375.222ZM72.657 374.152C73.0547 374.152 73.3842 374.047 73.6456 373.837C73.907 373.627 74.1001 373.347 74.2251 372.998C74.353 372.648 74.4169 372.263 74.4169 371.843C74.4169 371.425 74.353 371.042 74.2251 370.692C74.1001 370.34 73.907 370.057 73.6456 369.844C73.3842 369.631 73.0547 369.525 72.657 369.525C72.2564 369.525 71.924 369.631 71.6598 369.844C71.3984 370.057 71.2038 370.34 71.076 370.692C70.951 371.042 70.8885 371.425 70.8885 371.843C70.8885 372.263 70.951 372.648 71.076 372.998C71.2038 373.347 71.3984 373.627 71.6598 373.837C71.924 374.047 72.2564 374.152 72.657 374.152ZM79.9141 373.36H81.218C81.2351 373.627 81.3558 373.833 81.5803 373.978C81.8075 374.123 82.1016 374.195 82.4624 374.195C82.8288 374.195 83.1413 374.117 83.3999 373.961C83.6584 373.801 83.7876 373.556 83.7876 373.223C83.7876 373.025 83.7379 372.851 83.6385 372.703C83.5419 372.553 83.4041 372.436 83.2251 372.354C83.049 372.272 82.8402 372.23 82.5987 372.23H81.5334V371.229H82.5987C82.9595 371.229 83.2294 371.147 83.4084 370.982C83.5874 370.817 83.6768 370.611 83.6768 370.364C83.6768 370.097 83.5803 369.882 83.3871 369.721C83.1967 369.556 82.9311 369.473 82.5902 369.473C82.2436 369.473 81.9553 369.551 81.7251 369.708C81.495 369.861 81.3743 370.06 81.3629 370.304H80.076C80.0845 369.938 80.1953 369.617 80.4084 369.341C80.6243 369.063 80.9141 368.847 81.2777 368.694C81.6442 368.537 82.0604 368.459 82.5263 368.459C83.0121 368.459 83.4325 368.537 83.7876 368.694C84.1428 368.85 84.4169 369.066 84.6101 369.341C84.8061 369.617 84.9041 369.934 84.9041 370.292C84.9041 370.652 84.7962 370.948 84.5803 371.178C84.3672 371.405 84.0888 371.569 83.745 371.668V371.736C83.9979 371.753 84.2223 371.83 84.4183 371.966C84.6143 372.103 84.7678 372.283 84.8786 372.507C84.9893 372.732 85.0447 372.986 85.0447 373.27C85.0447 373.671 84.9339 374.017 84.7124 374.31C84.4936 374.603 84.1896 374.828 83.8004 374.988C83.4141 375.144 82.9723 375.222 82.4751 375.222C81.9922 375.222 81.5589 375.147 81.1754 374.996C80.7947 374.843 80.4922 374.627 80.2678 374.348C80.0462 374.07 79.9283 373.74 79.9141 373.36ZM86.3604 377.544V368.544H87.6048V369.605H87.7113C87.7852 369.469 87.8917 369.311 88.0309 369.132C88.1701 368.953 88.3633 368.797 88.6104 368.664C88.8576 368.527 89.1843 368.459 89.5906 368.459C90.119 368.459 90.5906 368.593 91.0053 368.86C91.4201 369.127 91.7454 369.512 91.9812 370.015C92.2198 370.517 92.3391 371.123 92.3391 371.83C92.3391 372.537 92.2212 373.144 91.9854 373.65C91.7496 374.152 91.4258 374.54 91.0138 374.813C90.6019 375.083 90.1317 375.218 89.6033 375.218C89.2056 375.218 88.8803 375.151 88.6275 375.017C88.3775 374.884 88.1815 374.728 88.0394 374.549C87.8974 374.37 87.788 374.211 87.7113 374.071H87.6346V377.544H86.3604ZM87.609 371.817C87.609 372.277 87.6758 372.681 87.8093 373.027C87.9428 373.374 88.136 373.645 88.3888 373.841C88.6417 374.034 88.9513 374.131 89.3178 374.131C89.6985 374.131 90.0167 374.03 90.2724 373.828C90.5281 373.624 90.7212 373.347 90.8519 372.998C90.9854 372.648 91.0522 372.255 91.0522 371.817C91.0522 371.385 90.9869 370.998 90.8562 370.654C90.7283 370.31 90.5352 370.039 90.2766 369.84C90.021 369.641 89.7013 369.542 89.3178 369.542C88.9485 369.542 88.636 369.637 88.3803 369.827C88.1275 370.017 87.9357 370.283 87.805 370.624C87.6744 370.965 87.609 371.363 87.609 371.817ZM96.5238 375.222C95.9102 375.222 95.3746 375.081 94.9173 374.8C94.4599 374.519 94.1048 374.125 93.8519 373.62C93.5991 373.114 93.4727 372.523 93.4727 371.847C93.4727 371.168 93.5991 370.574 93.8519 370.066C94.1048 369.557 94.4599 369.162 94.9173 368.881C95.3746 368.6 95.9102 368.459 96.5238 368.459C97.1374 368.459 97.6729 368.6 98.1303 368.881C98.5877 369.162 98.9428 369.557 99.1957 370.066C99.4485 370.574 99.5749 371.168 99.5749 371.847C99.5749 372.523 99.4485 373.114 99.1957 373.62C98.9428 374.125 98.5877 374.519 98.1303 374.8C97.6729 375.081 97.1374 375.222 96.5238 375.222ZM96.5281 374.152C96.9258 374.152 97.2553 374.047 97.5167 373.837C97.7781 373.627 97.9712 373.347 98.0962 372.998C98.2241 372.648 98.288 372.263 98.288 371.843C98.288 371.425 98.2241 371.042 98.0962 370.692C97.9712 370.34 97.7781 370.057 97.5167 369.844C97.2553 369.631 96.9258 369.525 96.5281 369.525C96.1275 369.525 95.7951 369.631 95.5309 369.844C95.2695 370.057 95.0749 370.34 94.9471 370.692C94.8221 371.042 94.7596 371.425 94.7596 371.843C94.7596 372.263 94.8221 372.648 94.9471 372.998C95.0749 373.347 95.2695 373.627 95.5309 373.837C95.7951 374.047 96.1275 374.152 96.5281 374.152ZM103.754 375.222C103.121 375.222 102.575 375.078 102.118 374.792C101.663 374.502 101.314 374.103 101.07 373.594C100.825 373.086 100.703 372.503 100.703 371.847C100.703 371.182 100.828 370.596 101.078 370.087C101.328 369.576 101.68 369.176 102.135 368.89C102.589 368.603 103.125 368.459 103.741 368.459C104.239 368.459 104.682 368.551 105.071 368.736C105.46 368.918 105.774 369.174 106.013 369.503C106.254 369.833 106.398 370.218 106.443 370.658H105.203C105.135 370.351 104.979 370.087 104.734 369.865C104.493 369.644 104.169 369.533 103.763 369.533C103.408 369.533 103.097 369.627 102.83 369.814C102.565 369.999 102.359 370.263 102.212 370.607C102.064 370.948 101.99 371.351 101.99 371.817C101.99 372.294 102.063 372.706 102.207 373.053C102.352 373.4 102.557 373.668 102.821 373.858C103.088 374.049 103.402 374.144 103.763 374.144C104.004 374.144 104.223 374.1 104.419 374.012C104.618 373.921 104.784 373.792 104.918 373.624C105.054 373.456 105.149 373.255 105.203 373.019H106.443C106.398 373.442 106.26 373.82 106.03 374.152C105.8 374.485 105.491 374.746 105.105 374.936C104.722 375.127 104.271 375.222 103.754 375.222ZM107.31 369.644V368.544H112.833V369.644H110.698V375.09H109.454V369.644H107.31ZM115.781 375.235C115.366 375.235 114.991 375.158 114.656 375.005C114.321 374.848 114.055 374.623 113.859 374.327C113.666 374.032 113.569 373.669 113.569 373.24C113.569 372.871 113.64 372.567 113.782 372.328C113.924 372.09 114.116 371.901 114.358 371.762C114.599 371.623 114.869 371.517 115.167 371.446C115.466 371.375 115.77 371.321 116.079 371.284C116.471 371.239 116.789 371.202 117.034 371.174C117.278 371.142 117.456 371.093 117.566 371.025C117.677 370.956 117.733 370.846 117.733 370.692V370.662C117.733 370.29 117.627 370.002 117.417 369.797C117.21 369.593 116.9 369.49 116.488 369.49C116.059 369.49 115.721 369.586 115.474 369.776C115.23 369.963 115.061 370.172 114.967 370.402L113.77 370.13C113.912 369.732 114.119 369.411 114.392 369.167C114.667 368.919 114.984 368.74 115.342 368.63C115.7 368.516 116.076 368.459 116.471 368.459C116.733 368.459 117.01 368.49 117.302 368.553C117.598 368.613 117.873 368.723 118.129 368.885C118.387 369.047 118.599 369.279 118.764 369.58C118.929 369.878 119.011 370.266 119.011 370.743V375.09H117.767V374.195H117.716C117.633 374.36 117.51 374.522 117.345 374.681C117.18 374.84 116.968 374.972 116.71 375.077C116.451 375.182 116.142 375.235 115.781 375.235ZM116.058 374.212C116.41 374.212 116.711 374.142 116.961 374.003C117.214 373.864 117.406 373.682 117.537 373.458C117.67 373.23 117.737 372.988 117.737 372.729V371.885C117.691 371.931 117.603 371.973 117.473 372.013C117.345 372.05 117.199 372.083 117.034 372.111C116.869 372.137 116.708 372.161 116.552 372.184C116.396 372.203 116.265 372.221 116.16 372.235C115.913 372.266 115.687 372.319 115.483 372.392C115.281 372.466 115.119 372.573 114.997 372.712C114.877 372.848 114.818 373.03 114.818 373.257C114.818 373.573 114.934 373.811 115.167 373.973C115.4 374.132 115.697 374.212 116.058 374.212ZM119.896 369.644V368.544H125.419V369.644H123.284V375.09H122.04V369.644H119.896ZM128.015 373.304L130.9 368.544H132.272V375.09H131.024V370.326L128.152 375.09H126.767V368.544H128.015V373.304Z" fill="#363636"/>
</g>
<g filter="url(#filter1_d_614_82)">
<rect x="239.742" y="281.59" width="217.077" height="194.41" rx="20" fill="#CE0FFF" shape-rendering="crispEdges"/>
<path d="M282.021 327.527H279.532C279.487 327.205 279.394 326.919 279.254 326.669C279.113 326.416 278.933 326.2 278.714 326.022C278.494 325.844 278.24 325.707 277.952 325.613C277.668 325.518 277.36 325.471 277.026 325.471C276.424 325.471 275.899 325.62 275.452 325.919C275.005 326.215 274.659 326.647 274.413 327.215C274.166 327.779 274.043 328.465 274.043 329.272C274.043 330.101 274.166 330.798 274.413 331.363C274.663 331.927 275.011 332.353 275.458 332.641C275.905 332.929 276.422 333.073 277.009 333.073C277.339 333.073 277.644 333.029 277.924 332.942C278.208 332.855 278.46 332.728 278.68 332.561C278.899 332.391 279.081 332.185 279.225 331.942C279.373 331.7 279.475 331.423 279.532 331.113L282.021 331.124C281.956 331.658 281.795 332.173 281.538 332.669C281.284 333.162 280.941 333.603 280.509 333.993C280.081 334.38 279.57 334.686 278.975 334.914C278.384 335.137 277.716 335.249 276.969 335.249C275.932 335.249 275.004 335.014 274.185 334.544C273.371 334.075 272.727 333.395 272.254 332.505C271.784 331.614 271.549 330.537 271.549 329.272C271.549 328.003 271.788 326.923 272.265 326.033C272.742 325.143 273.39 324.465 274.208 323.999C275.026 323.529 275.947 323.294 276.969 323.294C277.644 323.294 278.269 323.389 278.844 323.578C279.424 323.768 279.937 324.044 280.384 324.408C280.831 324.768 281.195 325.209 281.475 325.732C281.759 326.255 281.941 326.853 282.021 327.527ZM283.285 328.266V326.363H291.194V328.266H288.381V335.09H286.075V328.266H283.285ZM294.837 335.255C294.281 335.255 293.784 335.158 293.349 334.965C292.913 334.768 292.568 334.478 292.315 334.096C292.065 333.709 291.94 333.228 291.94 332.652C291.94 332.167 292.029 331.76 292.207 331.431C292.385 331.101 292.627 330.836 292.934 330.635C293.241 330.435 293.589 330.283 293.979 330.181C294.373 330.078 294.786 330.007 295.218 329.965C295.726 329.912 296.135 329.863 296.445 329.817C296.756 329.768 296.981 329.696 297.121 329.601C297.262 329.507 297.332 329.366 297.332 329.181V329.147C297.332 328.787 297.218 328.508 296.991 328.311C296.767 328.114 296.449 328.016 296.036 328.016C295.601 328.016 295.254 328.113 294.996 328.306C294.739 328.495 294.568 328.734 294.485 329.022L292.246 328.84C292.36 328.31 292.584 327.851 292.917 327.465C293.25 327.075 293.68 326.775 294.207 326.567C294.737 326.355 295.351 326.249 296.048 326.249C296.532 326.249 296.996 326.306 297.44 326.419C297.887 326.533 298.282 326.709 298.627 326.948C298.976 327.186 299.25 327.493 299.451 327.868C299.652 328.239 299.752 328.685 299.752 329.203V335.09H297.457V333.88H297.388C297.248 334.152 297.061 334.393 296.826 334.601C296.591 334.806 296.309 334.967 295.979 335.084C295.65 335.198 295.269 335.255 294.837 335.255ZM295.531 333.584C295.887 333.584 296.201 333.514 296.474 333.374C296.746 333.23 296.96 333.037 297.116 332.794C297.271 332.552 297.349 332.277 297.349 331.971V331.044C297.273 331.094 297.169 331.139 297.036 331.181C296.907 331.219 296.762 331.255 296.599 331.289C296.436 331.319 296.273 331.347 296.11 331.374C295.947 331.397 295.799 331.417 295.667 331.436C295.383 331.478 295.135 331.544 294.923 331.635C294.71 331.726 294.546 331.849 294.428 332.005C294.311 332.156 294.252 332.346 294.252 332.573C294.252 332.902 294.371 333.154 294.61 333.328C294.853 333.499 295.159 333.584 295.531 333.584ZM301.63 338.363V326.363H304.016V327.828H304.124C304.23 327.594 304.384 327.355 304.585 327.113C304.789 326.866 305.054 326.662 305.38 326.499C305.71 326.332 306.119 326.249 306.607 326.249C307.244 326.249 307.831 326.416 308.369 326.749C308.906 327.078 309.336 327.577 309.658 328.243C309.98 328.906 310.141 329.738 310.141 330.738C310.141 331.711 309.984 332.533 309.67 333.203C309.359 333.87 308.935 334.376 308.397 334.721C307.863 335.061 307.264 335.232 306.602 335.232C306.132 335.232 305.732 335.154 305.403 334.999C305.077 334.844 304.81 334.649 304.602 334.414C304.393 334.175 304.234 333.935 304.124 333.692H304.05V338.363H301.63ZM303.999 330.726C303.999 331.245 304.071 331.698 304.215 332.084C304.359 332.471 304.567 332.772 304.84 332.988C305.113 333.2 305.444 333.306 305.835 333.306C306.228 333.306 306.562 333.198 306.835 332.982C307.107 332.762 307.314 332.459 307.454 332.073C307.598 331.683 307.67 331.234 307.67 330.726C307.67 330.222 307.6 329.779 307.46 329.397C307.319 329.014 307.113 328.715 306.84 328.499C306.567 328.283 306.232 328.175 305.835 328.175C305.441 328.175 305.107 328.279 304.835 328.488C304.566 328.696 304.359 328.991 304.215 329.374C304.071 329.757 303.999 330.207 303.999 330.726ZM310.91 328.266V326.363H318.819V328.266H316.006V335.09H313.7V328.266H310.91ZM322.462 335.255C321.906 335.255 321.409 335.158 320.974 334.965C320.538 334.768 320.193 334.478 319.94 334.096C319.69 333.709 319.565 333.228 319.565 332.652C319.565 332.167 319.654 331.76 319.832 331.431C320.01 331.101 320.252 330.836 320.559 330.635C320.866 330.435 321.214 330.283 321.604 330.181C321.998 330.078 322.411 330.007 322.843 329.965C323.351 329.912 323.76 329.863 324.07 329.817C324.381 329.768 324.606 329.696 324.746 329.601C324.887 329.507 324.957 329.366 324.957 329.181V329.147C324.957 328.787 324.843 328.508 324.616 328.311C324.392 328.114 324.074 328.016 323.661 328.016C323.226 328.016 322.879 328.113 322.621 328.306C322.364 328.495 322.193 328.734 322.11 329.022L319.871 328.84C319.985 328.31 320.209 327.851 320.542 327.465C320.875 327.075 321.305 326.775 321.832 326.567C322.362 326.355 322.976 326.249 323.673 326.249C324.157 326.249 324.621 326.306 325.065 326.419C325.512 326.533 325.907 326.709 326.252 326.948C326.601 327.186 326.875 327.493 327.076 327.868C327.277 328.239 327.377 328.685 327.377 329.203V335.09H325.082V333.88H325.013C324.873 334.152 324.686 334.393 324.451 334.601C324.216 334.806 323.934 334.967 323.604 335.084C323.275 335.198 322.894 335.255 322.462 335.255ZM323.156 333.584C323.512 333.584 323.826 333.514 324.099 333.374C324.371 333.23 324.585 333.037 324.741 332.794C324.896 332.552 324.974 332.277 324.974 331.971V331.044C324.898 331.094 324.794 331.139 324.661 331.181C324.532 331.219 324.387 331.255 324.224 331.289C324.061 331.319 323.898 331.347 323.735 331.374C323.572 331.397 323.424 331.417 323.292 331.436C323.008 331.478 322.76 331.544 322.548 331.635C322.335 331.726 322.171 331.849 322.053 332.005C321.936 332.156 321.877 332.346 321.877 332.573C321.877 332.902 321.996 333.154 322.235 333.328C322.478 333.499 322.784 333.584 323.156 333.584ZM329.255 335.09V326.363H336.886V335.09H334.573V328.266H331.539V335.09H329.255ZM344.255 329.351V331.272H338.948V329.351H344.255ZM346.317 335.09V326.363H353.948V335.09H351.636V328.266H348.602V335.09H346.317ZM355.88 338.363V326.363H358.266V327.828H358.374C358.48 327.594 358.634 327.355 358.835 327.113C359.039 326.866 359.304 326.662 359.63 326.499C359.96 326.332 360.369 326.249 360.857 326.249C361.494 326.249 362.081 326.416 362.619 326.749C363.156 327.078 363.586 327.577 363.908 328.243C364.23 328.906 364.391 329.738 364.391 330.738C364.391 331.711 364.234 332.533 363.92 333.203C363.609 333.87 363.185 334.376 362.647 334.721C362.113 335.061 361.514 335.232 360.852 335.232C360.382 335.232 359.982 335.154 359.653 334.999C359.327 334.844 359.06 334.649 358.852 334.414C358.643 334.175 358.484 333.935 358.374 333.692H358.3V338.363H355.88ZM358.249 330.726C358.249 331.245 358.321 331.698 358.465 332.084C358.609 332.471 358.817 332.772 359.09 332.988C359.363 333.2 359.694 333.306 360.085 333.306C360.478 333.306 360.812 333.198 361.085 332.982C361.357 332.762 361.564 332.459 361.704 332.073C361.848 331.683 361.92 331.234 361.92 330.726C361.92 330.222 361.85 329.779 361.71 329.397C361.569 329.014 361.363 328.715 361.09 328.499C360.817 328.283 360.482 328.175 360.085 328.175C359.691 328.175 359.357 328.279 359.085 328.488C358.816 328.696 358.609 328.991 358.465 329.374C358.321 329.757 358.249 330.207 358.249 330.726ZM369.948 335.26C369.066 335.26 368.302 335.073 367.658 334.698C367.018 334.319 366.524 333.792 366.175 333.118C365.827 332.44 365.653 331.654 365.653 330.76C365.653 329.859 365.827 329.071 366.175 328.397C366.524 327.719 367.018 327.192 367.658 326.817C368.302 326.438 369.066 326.249 369.948 326.249C370.831 326.249 371.592 326.438 372.232 326.817C372.876 327.192 373.372 327.719 373.721 328.397C374.069 329.071 374.244 329.859 374.244 330.76C374.244 331.654 374.069 332.44 373.721 333.118C373.372 333.792 372.876 334.319 372.232 334.698C371.592 335.073 370.831 335.26 369.948 335.26ZM369.96 333.385C370.361 333.385 370.696 333.272 370.965 333.044C371.234 332.813 371.437 332.499 371.573 332.101C371.713 331.703 371.783 331.251 371.783 330.743C371.783 330.236 371.713 329.783 371.573 329.385C371.437 328.988 371.234 328.673 370.965 328.442C370.696 328.211 370.361 328.096 369.96 328.096C369.554 328.096 369.213 328.211 368.937 328.442C368.664 328.673 368.458 328.988 368.317 329.385C368.181 329.783 368.113 330.236 368.113 330.743C368.113 331.251 368.181 331.703 368.317 332.101C368.458 332.499 368.664 332.813 368.937 333.044C369.213 333.272 369.554 333.385 369.96 333.385ZM379.795 335.26C378.897 335.26 378.124 335.078 377.477 334.715C376.833 334.347 376.336 333.828 375.988 333.158C375.639 332.484 375.465 331.686 375.465 330.766C375.465 329.868 375.639 329.08 375.988 328.402C376.336 327.724 376.827 327.196 377.46 326.817C378.096 326.438 378.842 326.249 379.698 326.249C380.274 326.249 380.81 326.342 381.306 326.527C381.806 326.709 382.242 326.984 382.613 327.351C382.988 327.719 383.28 328.181 383.488 328.738C383.696 329.291 383.8 329.938 383.8 330.681V331.346H376.431V329.846H381.522C381.522 329.497 381.446 329.188 381.295 328.919C381.143 328.65 380.933 328.44 380.664 328.289C380.399 328.133 380.09 328.056 379.738 328.056C379.371 328.056 379.045 328.141 378.761 328.311C378.48 328.478 378.261 328.703 378.102 328.988C377.942 329.268 377.861 329.58 377.857 329.925V331.351C377.857 331.783 377.937 332.156 378.096 332.471C378.259 332.785 378.488 333.027 378.783 333.198C379.079 333.368 379.429 333.453 379.835 333.453C380.103 333.453 380.35 333.416 380.573 333.34C380.797 333.264 380.988 333.15 381.147 332.999C381.306 332.847 381.427 332.662 381.511 332.442L383.749 332.59C383.636 333.128 383.403 333.597 383.05 333.999C382.702 334.397 382.251 334.707 381.698 334.931C381.149 335.15 380.514 335.26 379.795 335.26ZM385.38 335.09V326.363H387.8V329.749H388.482L390.857 326.363H393.698L390.613 330.692L393.732 335.09H390.857L388.704 331.993H387.8V335.09H385.38ZM394.3 328.266V326.363H402.21V328.266H399.397V335.09H397.09V328.266H394.3ZM405.989 331.897L409.131 326.363H411.518V335.09H409.211V329.539L406.08 335.09H403.677V326.363H405.989V331.897Z" fill="#363636"/>
<path d="M271.04 365.199V361.973H271.616C271.812 361.809 271.995 361.574 272.165 361.27C272.336 360.966 272.481 360.556 272.6 360.039C272.719 359.522 272.802 358.858 272.847 358.049L273.052 354.363H278.434V361.973H279.423V365.186H278.161V363.09H272.302V365.199H271.04ZM273.167 361.973H277.173V355.496H274.245L274.109 358.049C274.072 358.665 274.011 359.219 273.925 359.711C273.843 360.202 273.737 360.637 273.606 361.015C273.478 361.39 273.332 361.709 273.167 361.973ZM283.52 363.222C282.906 363.222 282.371 363.081 281.913 362.8C281.456 362.519 281.101 362.125 280.848 361.62C280.595 361.114 280.469 360.523 280.469 359.847C280.469 359.168 280.595 358.574 280.848 358.066C281.101 357.557 281.456 357.162 281.913 356.881C282.371 356.6 282.906 356.459 283.52 356.459C284.134 356.459 284.669 356.6 285.126 356.881C285.584 357.162 285.939 357.557 286.192 358.066C286.445 358.574 286.571 359.168 286.571 359.847C286.571 360.523 286.445 361.114 286.192 361.62C285.939 362.125 285.584 362.519 285.126 362.8C284.669 363.081 284.134 363.222 283.52 363.222ZM283.524 362.152C283.922 362.152 284.251 362.047 284.513 361.837C284.774 361.627 284.967 361.347 285.092 360.998C285.22 360.648 285.284 360.263 285.284 359.843C285.284 359.425 285.22 359.042 285.092 358.692C284.967 358.34 284.774 358.057 284.513 357.844C284.251 357.631 283.922 357.525 283.524 357.525C283.124 357.525 282.791 357.631 282.527 357.844C282.266 358.057 282.071 358.34 281.943 358.692C281.818 359.042 281.756 359.425 281.756 359.843C281.756 360.263 281.818 360.648 281.943 360.998C282.071 361.347 282.266 361.627 282.527 361.837C282.791 362.047 283.124 362.152 283.524 362.152ZM291.169 365.544V356.544H292.413V357.605H292.52C292.594 357.469 292.7 357.311 292.839 357.132C292.979 356.953 293.172 356.797 293.419 356.664C293.666 356.527 293.993 356.459 294.399 356.459C294.928 356.459 295.399 356.593 295.814 356.86C296.229 357.127 296.554 357.512 296.79 358.015C297.028 358.517 297.148 359.123 297.148 359.83C297.148 360.537 297.03 361.144 296.794 361.65C296.558 362.152 296.234 362.54 295.822 362.813C295.411 363.083 294.94 363.218 294.412 363.218C294.014 363.218 293.689 363.151 293.436 363.017C293.186 362.884 292.99 362.728 292.848 362.549C292.706 362.37 292.597 362.211 292.52 362.071H292.443V365.544H291.169ZM292.418 359.817C292.418 360.277 292.484 360.681 292.618 361.027C292.751 361.374 292.945 361.645 293.197 361.841C293.45 362.034 293.76 362.131 294.126 362.131C294.507 362.131 294.825 362.03 295.081 361.828C295.337 361.624 295.53 361.347 295.661 360.998C295.794 360.648 295.861 360.255 295.861 359.817C295.861 359.385 295.795 358.998 295.665 358.654C295.537 358.31 295.344 358.039 295.085 357.84C294.83 357.641 294.51 357.542 294.126 357.542C293.757 357.542 293.445 357.637 293.189 357.827C292.936 358.017 292.744 358.283 292.614 358.624C292.483 358.965 292.418 359.363 292.418 359.817ZM301.332 363.222C300.719 363.222 300.183 363.081 299.726 362.8C299.268 362.519 298.913 362.125 298.661 361.62C298.408 361.114 298.281 360.523 298.281 359.847C298.281 359.168 298.408 358.574 298.661 358.066C298.913 357.557 299.268 357.162 299.726 356.881C300.183 356.6 300.719 356.459 301.332 356.459C301.946 356.459 302.482 356.6 302.939 356.881C303.396 357.162 303.751 357.557 304.004 358.066C304.257 358.574 304.384 359.168 304.384 359.847C304.384 360.523 304.257 361.114 304.004 361.62C303.751 362.125 303.396 362.519 302.939 362.8C302.482 363.081 301.946 363.222 301.332 363.222ZM301.337 362.152C301.734 362.152 302.064 362.047 302.325 361.837C302.587 361.627 302.78 361.347 302.905 360.998C303.033 360.648 303.097 360.263 303.097 359.843C303.097 359.425 303.033 359.042 302.905 358.692C302.78 358.34 302.587 358.057 302.325 357.844C302.064 357.631 301.734 357.525 301.337 357.525C300.936 357.525 300.604 357.631 300.339 357.844C300.078 358.057 299.884 358.34 299.756 358.692C299.631 359.042 299.568 359.425 299.568 359.843C299.568 360.263 299.631 360.648 299.756 360.998C299.884 361.347 300.078 361.627 300.339 361.837C300.604 362.047 300.936 362.152 301.337 362.152ZM305.418 361.36H306.722C306.739 361.627 306.86 361.833 307.084 361.978C307.311 362.123 307.605 362.195 307.966 362.195C308.333 362.195 308.645 362.117 308.904 361.961C309.162 361.801 309.292 361.556 309.292 361.223C309.292 361.025 309.242 360.851 309.142 360.703C309.046 360.553 308.908 360.436 308.729 360.354C308.553 360.272 308.344 360.23 308.103 360.23H307.037V359.229H308.103C308.463 359.229 308.733 359.147 308.912 358.982C309.091 358.817 309.181 358.611 309.181 358.364C309.181 358.097 309.084 357.882 308.891 357.721C308.701 357.556 308.435 357.473 308.094 357.473C307.748 357.473 307.459 357.551 307.229 357.708C306.999 357.861 306.878 358.06 306.867 358.304H305.58C305.588 357.938 305.699 357.617 305.912 357.341C306.128 357.063 306.418 356.847 306.782 356.694C307.148 356.537 307.564 356.459 308.03 356.459C308.516 356.459 308.936 356.537 309.292 356.694C309.647 356.85 309.921 357.066 310.114 357.341C310.31 357.617 310.408 357.934 310.408 358.292C310.408 358.652 310.3 358.948 310.084 359.178C309.871 359.405 309.593 359.569 309.249 359.668V359.736C309.502 359.753 309.726 359.83 309.922 359.966C310.118 360.103 310.272 360.283 310.382 360.507C310.493 360.732 310.549 360.986 310.549 361.27C310.549 361.671 310.438 362.017 310.216 362.31C309.998 362.603 309.694 362.828 309.304 362.988C308.918 363.144 308.476 363.222 307.979 363.222C307.496 363.222 307.063 363.147 306.679 362.996C306.299 362.843 305.996 362.627 305.772 362.348C305.55 362.07 305.432 361.74 305.418 361.36ZM311.864 365.544V356.544H313.109V357.605H313.215C313.289 357.469 313.396 357.311 313.535 357.132C313.674 356.953 313.867 356.797 314.114 356.664C314.362 356.527 314.688 356.459 315.094 356.459C315.623 356.459 316.094 356.593 316.509 356.86C316.924 357.127 317.249 357.512 317.485 358.015C317.724 358.517 317.843 359.123 317.843 359.83C317.843 360.537 317.725 361.144 317.489 361.65C317.254 362.152 316.93 362.54 316.518 362.813C316.106 363.083 315.636 363.218 315.107 363.218C314.71 363.218 314.384 363.151 314.131 363.017C313.881 362.884 313.685 362.728 313.543 362.549C313.401 362.37 313.292 362.211 313.215 362.071H313.138V365.544H311.864ZM313.113 359.817C313.113 360.277 313.18 360.681 313.313 361.027C313.447 361.374 313.64 361.645 313.893 361.841C314.146 362.034 314.455 362.131 314.822 362.131C315.202 362.131 315.521 362.03 315.776 361.828C316.032 361.624 316.225 361.347 316.356 360.998C316.489 360.648 316.556 360.255 316.556 359.817C316.556 359.385 316.491 358.998 316.36 358.654C316.232 358.31 316.039 358.039 315.781 357.84C315.525 357.641 315.205 357.542 314.822 357.542C314.452 357.542 314.14 357.637 313.884 357.827C313.631 358.017 313.44 358.283 313.309 358.624C313.178 358.965 313.113 359.363 313.113 359.817ZM322.028 363.222C321.414 363.222 320.879 363.081 320.421 362.8C319.964 362.519 319.609 362.125 319.356 361.62C319.103 361.114 318.977 360.523 318.977 359.847C318.977 359.168 319.103 358.574 319.356 358.066C319.609 357.557 319.964 357.162 320.421 356.881C320.879 356.6 321.414 356.459 322.028 356.459C322.641 356.459 323.177 356.6 323.634 356.881C324.092 357.162 324.447 357.557 324.7 358.066C324.952 358.574 325.079 359.168 325.079 359.847C325.079 360.523 324.952 361.114 324.7 361.62C324.447 362.125 324.092 362.519 323.634 362.8C323.177 363.081 322.641 363.222 322.028 363.222ZM322.032 362.152C322.43 362.152 322.759 362.047 323.021 361.837C323.282 361.627 323.475 361.347 323.6 360.998C323.728 360.648 323.792 360.263 323.792 359.843C323.792 359.425 323.728 359.042 323.6 358.692C323.475 358.34 323.282 358.057 323.021 357.844C322.759 357.631 322.43 357.525 322.032 357.525C321.631 357.525 321.299 357.631 321.035 357.844C320.773 358.057 320.579 358.34 320.451 358.692C320.326 359.042 320.263 359.425 320.263 359.843C320.263 360.263 320.326 360.648 320.451 360.998C320.579 361.347 320.773 361.627 321.035 361.837C321.299 362.047 321.631 362.152 322.032 362.152ZM331.551 354.107L332.079 354.912C331.883 355.091 331.66 355.219 331.41 355.296C331.163 355.37 330.877 355.417 330.554 355.436C330.23 355.453 329.859 355.469 329.441 355.483C328.97 355.498 328.582 355.6 328.278 355.79C327.974 355.978 327.74 356.256 327.575 356.625C327.413 356.992 327.308 357.452 327.26 358.006H327.341C327.554 357.6 327.849 357.296 328.227 357.094C328.608 356.892 329.035 356.792 329.51 356.792C330.038 356.792 330.508 356.912 330.92 357.154C331.332 357.395 331.656 357.749 331.892 358.215C332.13 358.678 332.25 359.245 332.25 359.915C332.25 360.594 332.125 361.181 331.875 361.675C331.627 362.169 331.278 362.551 330.826 362.821C330.377 363.088 329.848 363.222 329.237 363.222C328.626 363.222 328.093 363.084 327.639 362.809C327.187 362.53 326.836 362.118 326.586 361.573C326.339 361.027 326.216 360.354 326.216 359.553V358.905C326.216 357.408 326.483 356.282 327.017 355.526C327.551 354.77 328.349 354.382 329.412 354.363C329.755 354.354 330.062 354.353 330.332 354.358C330.602 354.361 330.838 354.348 331.039 354.32C331.244 354.289 331.414 354.218 331.551 354.107ZM329.241 362.152C329.596 362.152 329.902 362.063 330.157 361.884C330.416 361.702 330.615 361.445 330.754 361.113C330.893 360.78 330.963 360.388 330.963 359.936C330.963 359.493 330.893 359.117 330.754 358.807C330.615 358.498 330.416 358.262 330.157 358.1C329.899 357.935 329.589 357.853 329.228 357.853C328.961 357.853 328.723 357.9 328.512 357.993C328.302 358.084 328.122 358.219 327.971 358.398C327.824 358.577 327.708 358.796 327.626 359.054C327.547 359.31 327.504 359.604 327.498 359.936C327.498 360.613 327.653 361.151 327.963 361.551C328.275 361.952 328.701 362.152 329.241 362.152ZM333.673 363.09V356.544H334.947V359.289H335.561L337.721 356.544H339.298L336.762 359.728L339.328 363.09H337.747L335.774 360.473H334.947V363.09H333.673ZM341.566 361.304L344.451 356.544H345.823V363.09H344.575V358.326L341.702 363.09H340.317V356.544H341.566V361.304ZM354.615 363.09V357.631H353.047C352.675 357.631 352.385 357.718 352.178 357.891C351.971 358.064 351.867 358.292 351.867 358.573C351.867 358.851 351.962 359.076 352.152 359.246C352.346 359.414 352.615 359.498 352.962 359.498H354.986V360.529H352.962C352.479 360.529 352.061 360.449 351.709 360.29C351.36 360.128 351.09 359.9 350.9 359.604C350.712 359.309 350.618 358.959 350.618 358.556C350.618 358.144 350.715 357.789 350.908 357.49C351.104 357.189 351.384 356.956 351.748 356.792C352.114 356.627 352.547 356.544 353.047 356.544H355.813V363.09H354.615ZM350.32 363.09L352.165 359.783H353.469L351.624 363.09H350.32ZM357.509 363.09V356.544H358.783V359.289H359.397L361.557 356.544H363.134L360.598 359.728L363.164 363.09H361.583L359.61 360.473H358.783V363.09H357.509ZM365.402 361.304L368.287 356.544H369.659V363.09H368.411V358.326L365.538 363.09H364.153V356.544H365.402V361.304ZM372.378 356.544L373.822 359.093L375.28 356.544H376.673L374.632 359.817L376.69 363.09H375.297L373.822 360.644L372.352 363.09H370.955L372.991 359.817L370.98 356.544H372.378ZM380.791 357.644V356.544H386.314V357.644H384.179V363.09H382.934V357.644H380.791ZM388.91 361.304L391.795 356.544H393.167V363.09H391.918V358.326L389.046 363.09H387.661V356.544H388.91V361.304Z" fill="#363636"/>
<path d="M271.211 373.36H272.515C272.532 373.627 272.653 373.833 272.877 373.978C273.104 374.123 273.398 374.195 273.759 374.195C274.126 374.195 274.438 374.117 274.697 373.961C274.955 373.801 275.085 373.556 275.085 373.223C275.085 373.025 275.035 372.851 274.935 372.703C274.839 372.553 274.701 372.436 274.522 372.354C274.346 372.272 274.137 372.23 273.896 372.23H272.83V371.229H273.896C274.256 371.229 274.526 371.147 274.705 370.982C274.884 370.817 274.974 370.611 274.974 370.364C274.974 370.097 274.877 369.882 274.684 369.721C274.494 369.556 274.228 369.473 273.887 369.473C273.54 369.473 273.252 369.551 273.022 369.708C272.792 369.861 272.671 370.06 272.66 370.304H271.373C271.381 369.938 271.492 369.617 271.705 369.341C271.921 369.063 272.211 368.847 272.575 368.694C272.941 368.537 273.357 368.459 273.823 368.459C274.309 368.459 274.729 368.537 275.085 368.694C275.44 368.85 275.714 369.066 275.907 369.341C276.103 369.617 276.201 369.934 276.201 370.292C276.201 370.652 276.093 370.948 275.877 371.178C275.664 371.405 275.386 371.569 275.042 371.668V371.736C275.295 371.753 275.519 371.83 275.715 371.966C275.911 372.103 276.065 372.283 276.175 372.507C276.286 372.732 276.342 372.986 276.342 373.27C276.342 373.671 276.231 374.017 276.009 374.31C275.79 374.603 275.487 374.828 275.097 374.988C274.711 375.144 274.269 375.222 273.772 375.222C273.289 375.222 272.856 375.147 272.472 374.996C272.092 374.843 271.789 374.627 271.565 374.348C271.343 374.07 271.225 373.74 271.211 373.36ZM281.331 373.513L283.444 368.544H284.544L281.804 375.09H280.858L278.173 368.544H279.26L281.331 373.513ZM278.906 368.544V375.09H277.657V368.544H278.906ZM283.789 375.09V368.544H285.029V375.09H283.789ZM289.485 375.222C288.871 375.222 288.336 375.081 287.878 374.8C287.421 374.519 287.066 374.125 286.813 373.62C286.56 373.114 286.434 372.523 286.434 371.847C286.434 371.168 286.56 370.574 286.813 370.066C287.066 369.557 287.421 369.162 287.878 368.881C288.336 368.6 288.871 368.459 289.485 368.459C290.098 368.459 290.634 368.6 291.091 368.881C291.549 369.162 291.904 369.557 292.157 370.066C292.409 370.574 292.536 371.168 292.536 371.847C292.536 372.523 292.409 373.114 292.157 373.62C291.904 374.125 291.549 374.519 291.091 374.8C290.634 375.081 290.098 375.222 289.485 375.222ZM289.489 374.152C289.887 374.152 290.216 374.047 290.478 373.837C290.739 373.627 290.932 373.347 291.057 372.998C291.185 372.648 291.249 372.263 291.249 371.843C291.249 371.425 291.185 371.042 291.057 370.692C290.932 370.34 290.739 370.057 290.478 369.844C290.216 369.631 289.887 369.525 289.489 369.525C289.088 369.525 288.756 369.631 288.492 369.844C288.23 370.057 288.036 370.34 287.908 370.692C287.783 371.042 287.721 371.425 287.721 371.843C287.721 372.263 287.783 372.648 287.908 372.998C288.036 373.347 288.23 373.627 288.492 373.837C288.756 374.047 289.088 374.152 289.489 374.152ZM293.283 375.09L295.818 371.74L293.312 368.544H294.795L296.82 371.263H297.276V368.544H298.55V371.263H298.993L301.017 368.544H302.5L300.007 371.74L302.53 375.09H301.017L298.976 372.363H298.55V375.09H297.276V372.363H296.849L294.795 375.09H293.283ZM306.388 375.222C305.744 375.222 305.188 375.084 304.722 374.809C304.259 374.53 303.901 374.14 303.648 373.637C303.398 373.131 303.273 372.539 303.273 371.86C303.273 371.189 303.398 370.598 303.648 370.087C303.901 369.576 304.254 369.176 304.705 368.89C305.16 368.603 305.691 368.459 306.299 368.459C306.668 368.459 307.026 368.52 307.373 368.642C307.719 368.765 308.031 368.956 308.306 369.218C308.582 369.479 308.799 369.819 308.958 370.236C309.117 370.651 309.197 371.155 309.197 371.749V372.201H303.994V371.246H307.948C307.948 370.911 307.88 370.614 307.744 370.355C307.607 370.094 307.415 369.888 307.168 369.738C306.924 369.587 306.637 369.512 306.308 369.512C305.95 369.512 305.637 369.6 305.37 369.776C305.106 369.949 304.901 370.176 304.756 370.458C304.614 370.736 304.543 371.039 304.543 371.365V372.111C304.543 372.549 304.62 372.921 304.773 373.228C304.93 373.534 305.147 373.769 305.425 373.931C305.704 374.09 306.029 374.169 306.401 374.169C306.643 374.169 306.863 374.135 307.062 374.067C307.261 373.996 307.433 373.891 307.577 373.752C307.722 373.613 307.833 373.441 307.91 373.236L309.116 373.453C309.019 373.809 308.846 374.12 308.596 374.387C308.349 374.651 308.038 374.857 307.663 375.005C307.29 375.15 306.866 375.222 306.388 375.222ZM310.61 368.544H311.859V373.986H314.122V368.544H315.37V373.986H317.633V368.544H318.882V375.09H310.61V368.544ZM323.12 376.978V373.986H323.652C323.789 373.861 323.904 373.712 323.998 373.539C324.094 373.365 324.175 373.159 324.24 372.921C324.309 372.682 324.365 372.404 324.411 372.086C324.456 371.765 324.496 371.398 324.53 370.986L324.735 368.544H329.184V373.986H330.189V376.978H328.945V375.09H324.381V376.978H323.12ZM325.016 373.986H327.939V369.635H325.877L325.74 370.986C325.675 371.674 325.593 372.27 325.493 372.776C325.394 373.279 325.235 373.682 325.016 373.986ZM334.192 375.222C333.578 375.222 333.043 375.081 332.585 374.8C332.128 374.519 331.773 374.125 331.52 373.62C331.267 373.114 331.141 372.523 331.141 371.847C331.141 371.168 331.267 370.574 331.52 370.066C331.773 369.557 332.128 369.162 332.585 368.881C333.043 368.6 333.578 368.459 334.192 368.459C334.805 368.459 335.341 368.6 335.798 368.881C336.256 369.162 336.611 369.557 336.864 370.066C337.116 370.574 337.243 371.168 337.243 371.847C337.243 372.523 337.116 373.114 336.864 373.62C336.611 374.125 336.256 374.519 335.798 374.8C335.341 375.081 334.805 375.222 334.192 375.222ZM334.196 374.152C334.594 374.152 334.923 374.047 335.185 373.837C335.446 373.627 335.639 373.347 335.764 372.998C335.892 372.648 335.956 372.263 335.956 371.843C335.956 371.425 335.892 371.042 335.764 370.692C335.639 370.34 335.446 370.057 335.185 369.844C334.923 369.631 334.594 369.525 334.196 369.525C333.795 369.525 333.463 369.631 333.199 369.844C332.938 370.057 332.743 370.34 332.615 370.692C332.49 371.042 332.428 371.425 332.428 371.843C332.428 372.263 332.49 372.648 332.615 372.998C332.743 373.347 332.938 373.627 333.199 373.837C333.463 374.047 333.795 374.152 334.196 374.152ZM338.15 375.09L338.145 373.986H338.38C338.561 373.986 338.713 373.948 338.836 373.871C338.961 373.792 339.063 373.658 339.142 373.471C339.222 373.283 339.283 373.025 339.326 372.695C339.368 372.363 339.4 371.945 339.419 371.442L339.534 368.544H344.103V375.09H342.854V369.644H340.715L340.613 371.868C340.587 372.408 340.532 372.88 340.446 373.283C340.364 373.686 340.243 374.023 340.084 374.293C339.925 374.56 339.721 374.76 339.471 374.894C339.221 375.025 338.917 375.09 338.559 375.09H338.15ZM346.373 377.544C346.183 377.544 346.009 377.529 345.853 377.498C345.697 377.469 345.58 377.438 345.504 377.404L345.81 376.36C346.043 376.422 346.251 376.449 346.433 376.441C346.614 376.432 346.775 376.364 346.914 376.236C347.056 376.108 347.181 375.9 347.289 375.61L347.447 375.175L345.052 368.544H346.415L348.073 373.624H348.141L349.799 368.544H351.167L348.469 375.963C348.344 376.304 348.185 376.593 347.992 376.828C347.799 377.067 347.569 377.246 347.302 377.365C347.035 377.485 346.725 377.544 346.373 377.544ZM357.431 368.544V375.09H356.187V368.544H357.431ZM356.89 371.583V372.682C356.694 372.762 356.487 372.833 356.268 372.895C356.049 372.955 355.819 373.002 355.577 373.036C355.336 373.07 355.085 373.087 354.823 373.087C354.013 373.087 353.37 372.89 352.893 372.495C352.415 372.097 352.177 371.489 352.177 370.671V368.532H353.417V370.671C353.417 370.98 353.474 371.232 353.587 371.425C353.701 371.618 353.863 371.76 354.073 371.851C354.283 371.942 354.533 371.988 354.823 371.988C355.207 371.988 355.56 371.952 355.884 371.881C356.211 371.807 356.546 371.708 356.89 371.583ZM360.375 373.304L363.26 368.544H364.632V375.09H363.383V370.326L360.511 375.09H359.126V368.544H360.375V373.304ZM365.533 369.644V368.544H371.056V369.644H368.921V375.09H367.676V369.644H365.533ZM373.652 373.304L376.537 368.544H377.909V375.09H376.661V370.326L373.788 375.09H372.403V368.544H373.652V373.304ZM382.379 375.222C381.746 375.222 381.2 375.078 380.743 374.792C380.288 374.502 379.939 374.103 379.695 373.594C379.45 373.086 379.328 372.503 379.328 371.847C379.328 371.182 379.453 370.596 379.703 370.087C379.953 369.576 380.305 369.176 380.76 368.89C381.214 368.603 381.75 368.459 382.366 368.459C382.864 368.459 383.307 368.551 383.696 368.736C384.085 368.918 384.399 369.174 384.638 369.503C384.879 369.833 385.023 370.218 385.068 370.658H383.828C383.76 370.351 383.604 370.087 383.359 369.865C383.118 369.644 382.794 369.533 382.388 369.533C382.033 369.533 381.722 369.627 381.455 369.814C381.19 369.999 380.984 370.263 380.837 370.607C380.689 370.948 380.615 371.351 380.615 371.817C380.615 372.294 380.688 372.706 380.832 373.053C380.977 373.4 381.182 373.668 381.446 373.858C381.713 374.049 382.027 374.144 382.388 374.144C382.629 374.144 382.848 374.1 383.044 374.012C383.243 373.921 383.409 373.792 383.543 373.624C383.679 373.456 383.774 373.255 383.828 373.019H385.068C385.023 373.442 384.885 373.82 384.655 374.152C384.425 374.485 384.116 374.746 383.73 374.936C383.347 375.127 382.896 375.222 382.379 375.222ZM390.334 375.09V369.631H388.766C388.394 369.631 388.104 369.718 387.897 369.891C387.689 370.064 387.586 370.292 387.586 370.573C387.586 370.851 387.681 371.076 387.871 371.246C388.064 371.414 388.334 371.498 388.681 371.498H390.705V372.529H388.681C388.198 372.529 387.78 372.449 387.428 372.29C387.078 372.128 386.809 371.9 386.618 371.604C386.431 371.309 386.337 370.959 386.337 370.556C386.337 370.144 386.434 369.789 386.627 369.49C386.823 369.189 387.103 368.956 387.466 368.792C387.833 368.627 388.266 368.544 388.766 368.544H391.532V375.09H390.334ZM386.039 375.09L387.884 371.783H389.188L387.343 375.09H386.039Z" fill="#363636"/>
</g>
<rect width="456.821" height="258.923" rx="26" fill="url(#paint0_linear_614_82)"/>
<rect x="62.6562" y="70.7778" width="164.567" height="54.7485" rx="20" fill="#363636"/>
<path d="M99.2397 102L96.5522 98.4141H95.7007V102H94.4937V94H95.7007V97.3789H96.0952L99.1187 94H100.591L97.3921 97.582L100.712 102H99.2397ZM108.382 98C108.382 98.8542 108.226 99.5885 107.914 100.203C107.601 100.815 107.173 101.286 106.628 101.617C106.087 101.945 105.471 102.109 104.781 102.109C104.088 102.109 103.47 101.945 102.925 101.617C102.384 101.286 101.957 100.814 101.644 100.199C101.332 99.5846 101.175 98.8516 101.175 98C101.175 97.1458 101.332 96.4128 101.644 95.8008C101.957 95.1862 102.384 94.7148 102.925 94.3867C103.47 94.056 104.088 93.8906 104.781 93.8906C105.471 93.8906 106.087 94.056 106.628 94.3867C107.173 94.7148 107.601 95.1862 107.914 95.8008C108.226 96.4128 108.382 97.1458 108.382 98ZM107.187 98C107.187 97.349 107.082 96.8008 106.871 96.3555C106.662 95.9076 106.376 95.569 106.011 95.3398C105.649 95.1081 105.239 94.9922 104.781 94.9922C104.32 94.9922 103.908 95.1081 103.546 95.3398C103.184 95.569 102.898 95.9076 102.687 96.3555C102.479 96.8008 102.375 97.349 102.375 98C102.375 98.651 102.479 99.2005 102.687 99.6484C102.898 100.094 103.184 100.432 103.546 100.664C103.908 100.893 104.32 101.008 104.781 101.008C105.239 101.008 105.649 100.893 106.011 100.664C106.376 100.432 106.662 100.094 106.871 99.6484C107.082 99.2005 107.187 98.651 107.187 98ZM109.887 94H111.352L113.899 100.219H113.993L116.54 94H118.004V102H116.856V96.2109H116.782L114.422 101.988H113.469L111.11 96.207H111.036V102H109.887V94ZM126.013 94V102H124.81V95.0312H121.044V102H119.841V94H126.013ZM127.859 102V94H132.875V95.0391H129.066V97.4766H132.613V98.5117H129.066V100.961H132.921V102H127.859ZM134.092 95.0391V94H140.284V95.0391H137.788V102H136.584V95.0391H134.092ZM141.652 102V94H146.667V95.0391H142.859V97.4766H146.406V98.5117H142.859V100.961H146.714V102H141.652ZM148.28 102V94H149.487V97.4766H153.475V94H154.686V102H153.475V98.5117H149.487V102H148.28ZM156.049 95.0391V94H162.241V95.0391H159.745V102H158.542V95.0391H156.049ZM163.609 102V94H164.816V97.4766H168.804V94H170.015V102H168.804V98.5117H164.816V102H163.609ZM172.98 94V102H171.773V94H172.98ZM181.382 96.6016H180.164C180.117 96.3411 180.029 96.112 179.902 95.9141C179.774 95.7161 179.618 95.5482 179.433 95.4102C179.248 95.2721 179.041 95.168 178.812 95.0977C178.585 95.0273 178.345 94.9922 178.089 94.9922C177.628 94.9922 177.216 95.1081 176.851 95.3398C176.489 95.5716 176.203 95.9115 175.992 96.3594C175.783 96.8073 175.679 97.3542 175.679 98C175.679 98.651 175.783 99.2005 175.992 99.6484C176.203 100.096 176.49 100.435 176.855 100.664C177.22 100.893 177.63 101.008 178.085 101.008C178.338 101.008 178.578 100.974 178.804 100.906C179.033 100.836 179.24 100.733 179.425 100.598C179.61 100.462 179.766 100.297 179.894 100.102C180.024 99.9036 180.114 99.6771 180.164 99.4219L181.382 99.4258C181.317 99.819 181.191 100.181 181.003 100.512C180.819 100.84 180.58 101.124 180.289 101.363C180 101.6 179.669 101.784 179.296 101.914C178.924 102.044 178.518 102.109 178.078 102.109C177.385 102.109 176.768 101.945 176.226 101.617C175.684 101.286 175.257 100.814 174.945 100.199C174.635 99.5846 174.48 98.8516 174.48 98C174.48 97.1458 174.636 96.4128 174.949 95.8008C175.261 95.1862 175.688 94.7148 176.23 94.3867C176.772 94.056 177.388 93.8906 178.078 93.8906C178.502 93.8906 178.898 93.9518 179.265 94.0742C179.635 94.194 179.967 94.3711 180.261 94.6055C180.556 94.8372 180.799 95.1211 180.992 95.457C181.184 95.7904 181.315 96.1719 181.382 96.6016ZM182.432 95.0391V94H188.624V95.0391H186.127V102H184.924V95.0391H182.432ZM190.839 97.2266H192.996C193.589 97.2266 194.095 97.3229 194.511 97.5156C194.928 97.7083 195.246 97.9805 195.464 98.332C195.686 98.6836 195.795 99.0977 195.792 99.5742C195.795 100.051 195.686 100.471 195.464 100.836C195.246 101.201 194.928 101.486 194.511 101.691C194.095 101.897 193.589 102 192.996 102H190V94H191.21V100.984H192.996C193.342 100.984 193.634 100.917 193.871 100.781C194.11 100.646 194.291 100.47 194.414 100.254C194.539 100.038 194.601 99.806 194.601 99.5586C194.601 99.1992 194.463 98.8906 194.187 98.6328C193.911 98.3724 193.514 98.2422 192.996 98.2422H190.839V97.2266Z" fill="white"/>
<rect x="0.103061" y="0.700781" width="163.778" height="55.5015" rx="19.5" transform="matrix(0.801441 0.598073 -0.595319 0.803489 266.617 41.0504)" stroke="#363636"/>
<path d="M294.879 92.254L289.683 99.2663L288.632 98.4813L293.157 92.373L289.865 89.9161L285.339 96.0245L284.287 95.2395L289.483 88.2272L294.879 92.254ZM297.548 94.2458L292.352 101.258L291.297 100.471L296.493 93.4583L297.548 94.2458ZM292.104 103.705L294.025 101.113L294.486 101.457C294.741 101.442 295.027 101.363 295.345 101.221C295.662 101.078 296.023 100.835 296.426 100.491C296.83 100.147 297.291 99.6633 297.809 99.04L300.167 96.2006L304.481 99.4195L299.95 105.535L300.742 106.126L298.83 108.708L297.819 107.953L299.067 106.269L294.371 102.764L293.115 104.459L292.104 103.705ZM295.729 102.385L298.939 104.78L302.795 99.5758L300.449 97.8249L298.82 99.7943C298.423 100.268 298.045 100.676 297.684 101.02C297.325 101.366 296.981 101.651 296.651 101.877C296.326 102.102 296.018 102.271 295.729 102.385ZM305.41 101.527L306.084 100.616L311.498 104.656L310.823 105.566L308.64 103.938L304.12 110.039L303.068 109.254L307.588 103.153L305.41 101.527ZM307.498 112.56L312.694 105.548L315.187 107.409C315.731 107.815 316.108 108.25 316.319 108.716C316.529 109.181 316.595 109.652 316.517 110.13C316.441 110.605 316.244 111.057 315.926 111.486C315.607 111.917 315.229 112.238 314.794 112.449C314.363 112.658 313.893 112.73 313.384 112.662C312.88 112.594 312.356 112.358 311.814 111.953L310.1 110.674L310.765 109.777L312.383 110.985C312.727 111.241 313.05 111.39 313.352 111.431C313.656 111.47 313.935 111.423 314.189 111.29C314.443 111.157 314.668 110.958 314.864 110.693C315.06 110.428 315.184 110.156 315.236 109.876C315.288 109.595 315.249 109.316 315.119 109.039C314.992 108.763 314.752 108.494 314.402 108.232L313.077 107.243L308.553 113.348L307.498 112.56ZM318.845 110.139L319.89 110.919L316.075 116.068L316.14 116.117L323.514 113.623L324.491 114.352L319.295 121.364L318.24 120.577L322.05 115.434L321.985 115.385L314.623 117.878L313.65 117.151L318.845 110.139ZM326.03 115.501L327.311 116.456L325.499 123.569L325.581 123.63L331.846 119.841L333.127 120.797L327.932 127.809L326.927 127.06L330.687 121.985L330.622 121.937L324.807 125.461L323.974 124.84L325.666 118.233L325.601 118.184L321.839 123.262L320.835 122.513L326.03 115.501ZM333.615 132.05L333.594 127.154L332.85 126.598L330.521 129.741L329.466 128.954L334.661 121.942L335.717 122.729L333.522 125.691L333.867 125.948L338.705 124.959L339.993 125.92L334.869 126.972L334.903 133.011L333.615 132.05ZM336.471 134.182L335.351 133.346L343.064 128.212L344.283 129.122L341.604 138.012L340.484 137.176L342.759 129.962L342.704 129.921L336.471 134.182ZM338.694 131.576L342.328 134.287L341.668 135.178L338.034 132.466L338.694 131.576Z" fill="#171515"/>
<rect x="0.644901" y="0.287936" width="163.643" height="55.5476" rx="19.5" transform="matrix(0.933526 -0.35851 0.356275 0.934381 59.2215 161.128)" stroke="#363636"/>
<path d="M105.109 178.141L102 169.986L107.108 168.024L107.512 169.084L103.633 170.573L104.58 173.058L108.192 171.671L108.595 172.726L104.983 174.113L105.935 176.609L109.861 175.102L110.265 176.161L105.109 178.141ZM112.048 167.205L113.516 166.641C114.136 166.402 114.739 166.328 115.323 166.417C115.909 166.502 116.432 166.738 116.892 167.124C117.355 167.507 117.709 168.022 117.956 168.67C118.201 169.312 118.278 169.929 118.188 170.521C118.1 171.111 117.866 171.636 117.488 172.095C117.111 172.55 116.613 172.897 115.992 173.135L114.524 173.699C113.903 173.937 113.301 174.015 112.716 173.932C112.13 173.847 111.607 173.615 111.147 173.238C110.689 172.86 110.338 172.348 110.092 171.703C109.844 171.053 109.764 170.429 109.853 169.832C109.941 169.235 110.174 168.708 110.549 168.25C110.928 167.791 111.427 167.443 112.048 167.205ZM112.453 168.268C112.029 168.431 111.701 168.659 111.469 168.951C111.236 169.242 111.103 169.582 111.069 169.972C111.035 170.363 111.106 170.787 111.281 171.247C111.452 171.695 111.679 172.051 111.962 172.314C112.246 172.573 112.571 172.732 112.938 172.792C113.303 172.85 113.697 172.798 114.119 172.636L115.591 172.07C116.012 171.908 116.339 171.684 116.57 171.398C116.803 171.107 116.936 170.77 116.969 170.386C117.003 169.999 116.935 169.579 116.763 169.128C116.589 168.674 116.361 168.314 116.078 168.049C115.796 167.78 115.471 167.615 115.105 167.555C114.74 167.491 114.347 167.54 113.925 167.702L112.453 168.268ZM112.975 165.607L116.267 174.239L115.062 174.702L111.77 166.07L112.975 165.607ZM120.994 172.04L117.884 163.886L122.992 161.924L123.396 162.983L119.517 164.473L120.465 166.957L124.077 165.57L124.479 166.625L120.867 168.013L121.819 170.509L125.745 169.001L126.149 170.06L120.994 172.04ZM132.577 167.592L128.446 164.988L127.579 165.321L128.973 168.976L127.744 169.448L124.634 161.294L125.863 160.821L127.177 164.266L127.578 164.111L129.344 159.485L130.844 158.909L128.978 163.811L134.077 167.016L132.577 167.592ZM132.108 159.638L131.704 158.578L138.01 156.157L138.413 157.216L135.871 158.192L138.577 165.288L137.352 165.758L134.646 158.663L132.108 159.638ZM139.403 155.622L140.62 155.154L142.904 161.143L142.979 161.114L144.841 153.533L145.979 153.096L149.088 161.251L147.859 161.723L145.578 155.743L145.503 155.772L143.646 163.341L142.512 163.776L139.403 155.622ZM150.881 160.562L147.772 152.408L150.755 151.262C151.334 151.04 151.849 150.952 152.301 150.997C152.752 151.04 153.133 151.187 153.445 151.439C153.756 151.688 153.988 152.014 154.142 152.417C154.272 152.757 154.319 153.068 154.283 153.349C154.246 153.628 154.15 153.878 153.994 154.099C153.84 154.317 153.65 154.505 153.425 154.664L153.456 154.744C153.731 154.654 154.029 154.64 154.348 154.703C154.668 154.762 154.97 154.907 155.252 155.136C155.534 155.366 155.755 155.692 155.916 156.114C156.075 156.53 156.12 156.942 156.05 157.349C155.982 157.753 155.782 158.13 155.45 158.479C155.117 158.826 154.635 159.121 154.004 159.363L150.881 160.562ZM151.708 159.035L153.482 158.354C154.071 158.128 154.449 157.852 154.617 157.526C154.784 157.2 154.803 156.865 154.672 156.523C154.574 156.265 154.419 156.054 154.207 155.889C153.995 155.724 153.744 155.624 153.454 155.589C153.167 155.553 152.859 155.599 152.53 155.725L150.712 156.423L151.708 159.035ZM150.346 155.464L151.993 154.831C152.269 154.725 152.497 154.577 152.676 154.386C152.859 154.194 152.978 153.978 153.035 153.737C153.094 153.492 153.073 153.239 152.973 152.976C152.845 152.639 152.619 152.401 152.296 152.264C151.973 152.126 151.567 152.151 151.079 152.338L149.4 152.983L150.346 155.464ZM158.211 157.748L155.101 149.593L156.331 149.121L157.682 152.665L161.744 151.105L160.392 147.561L161.626 147.087L164.735 155.242L163.502 155.716L162.146 152.16L158.084 153.72L159.44 157.276L158.211 157.748ZM164.645 145.928L167.754 154.083L166.525 154.555L163.416 146.4L164.645 145.928ZM174.213 145.294L172.972 145.77C172.823 145.523 172.645 145.324 172.438 145.172C172.231 145.02 172.007 144.91 171.765 144.842C171.523 144.773 171.272 144.748 171.011 144.766C170.753 144.783 170.494 144.841 170.234 144.941C169.764 145.121 169.389 145.401 169.108 145.78C168.829 146.158 168.67 146.616 168.629 147.155C168.591 147.693 168.697 148.291 168.948 148.95C169.201 149.613 169.521 150.133 169.907 150.508C170.296 150.882 170.721 151.114 171.181 151.205C171.642 151.296 172.104 151.253 172.568 151.074C172.825 150.976 173.056 150.847 173.26 150.69C173.466 150.528 173.637 150.343 173.773 150.132C173.909 149.922 174.004 149.692 174.058 149.443C174.113 149.191 174.117 148.925 174.068 148.645L175.311 148.172C175.397 148.599 175.409 149.017 175.347 149.428C175.286 149.834 175.154 150.217 174.95 150.575C174.747 150.93 174.482 151.246 174.153 151.525C173.825 151.803 173.436 152.028 172.988 152.2C172.283 152.471 171.59 152.545 170.911 152.423C170.231 152.298 169.612 151.983 169.055 151.479C168.501 150.973 168.058 150.287 167.727 149.419C167.395 148.548 167.269 147.74 167.35 146.994C167.429 146.245 167.681 145.597 168.105 145.051C168.528 144.502 169.091 144.093 169.794 143.823C170.226 143.657 170.653 143.564 171.074 143.545C171.498 143.523 171.905 143.574 172.295 143.697C172.685 143.819 173.043 144.013 173.37 144.28C173.696 144.544 173.977 144.882 174.213 145.294ZM174.675 143.29L174.271 142.231L180.576 139.81L180.98 140.869L178.438 141.845L181.143 148.941L179.918 149.411L177.213 142.316L174.675 143.29ZM184.087 142.232L186.283 141.389C186.887 141.156 187.439 141.057 187.939 141.091C188.438 141.124 188.867 141.277 189.226 141.55C189.589 141.822 189.861 142.201 190.043 142.688C190.231 143.173 190.283 143.644 190.2 144.102C190.119 144.559 189.906 144.974 189.562 145.347C189.217 145.72 188.743 146.022 188.138 146.254L185.087 147.426L181.977 139.272L183.211 138.798L185.925 145.917L187.743 145.219C188.096 145.084 188.367 144.901 188.555 144.67C188.747 144.438 188.863 144.188 188.903 143.92C188.947 143.651 188.92 143.39 188.824 143.138C188.684 142.772 188.424 142.511 188.043 142.356C187.66 142.199 187.205 142.221 186.677 142.424L184.482 143.267L184.087 142.232Z" fill="#171515"/>
<rect x="218.062" y="162.219" width="164.567" height="54.7485" rx="20" fill="#363636"/>
<path d="M269.544 194V186H272.396C273.018 186 273.534 186.113 273.942 186.34C274.351 186.566 274.657 186.876 274.86 187.27C275.063 187.66 275.165 188.1 275.165 188.59C275.165 189.082 275.062 189.525 274.856 189.918C274.653 190.309 274.346 190.618 273.935 190.848C273.526 191.074 273.011 191.188 272.392 191.188H270.431V190.164H272.282C272.675 190.164 272.994 190.096 273.239 189.961C273.484 189.823 273.664 189.635 273.778 189.398C273.893 189.161 273.95 188.892 273.95 188.59C273.95 188.288 273.893 188.02 273.778 187.785C273.664 187.551 273.483 187.367 273.235 187.234C272.991 187.102 272.668 187.035 272.267 187.035H270.751V194H269.544ZM276.58 194V186H281.596V187.039H277.787V189.477H281.334V190.512H277.787V192.961H281.643V194H276.58ZM285.884 194.109C285.347 194.109 284.868 194.017 284.446 193.832C284.027 193.647 283.695 193.391 283.45 193.062C283.208 192.732 283.078 192.349 283.06 191.914H284.286C284.302 192.151 284.381 192.357 284.524 192.531C284.67 192.703 284.86 192.836 285.095 192.93C285.329 193.023 285.59 193.07 285.876 193.07C286.191 193.07 286.47 193.016 286.712 192.906C286.957 192.797 287.148 192.645 287.286 192.449C287.424 192.251 287.493 192.023 287.493 191.766C287.493 191.497 287.424 191.262 287.286 191.059C287.151 190.853 286.951 190.691 286.688 190.574C286.428 190.457 286.113 190.398 285.743 190.398H285.067V189.414H285.743C286.04 189.414 286.3 189.361 286.524 189.254C286.751 189.147 286.928 188.999 287.056 188.809C287.183 188.616 287.247 188.391 287.247 188.133C287.247 187.885 287.191 187.671 287.079 187.488C286.97 187.303 286.813 187.159 286.61 187.055C286.41 186.951 286.173 186.898 285.899 186.898C285.639 186.898 285.396 186.947 285.169 187.043C284.945 187.137 284.763 187.272 284.622 187.449C284.481 187.624 284.406 187.833 284.396 188.078H283.228C283.241 187.646 283.368 187.266 283.61 186.937C283.855 186.609 284.178 186.353 284.579 186.168C284.98 185.983 285.425 185.891 285.915 185.891C286.428 185.891 286.871 185.991 287.243 186.191C287.618 186.389 287.907 186.654 288.11 186.984C288.316 187.315 288.418 187.677 288.415 188.07C288.418 188.518 288.293 188.898 288.04 189.211C287.79 189.523 287.457 189.733 287.04 189.84V189.902C287.571 189.983 287.983 190.194 288.274 190.535C288.569 190.876 288.715 191.299 288.712 191.805C288.715 192.245 288.592 192.639 288.345 192.988C288.1 193.337 287.765 193.612 287.341 193.812C286.916 194.01 286.431 194.109 285.884 194.109ZM290.864 194.109V193.047H291.345C291.545 193.047 291.711 193.013 291.841 192.945C291.974 192.878 292.082 192.786 292.165 192.672C292.251 192.555 292.323 192.427 292.38 192.289L292.493 192.004L289.681 186H290.962L293.06 190.625L294.927 186H296.192L293.427 192.613C293.31 192.879 293.174 193.125 293.021 193.352C292.869 193.578 292.668 193.762 292.415 193.902C292.162 194.04 291.828 194.109 291.411 194.109H290.864ZM296.729 194V192.953L296.963 192.945C297.281 192.937 297.531 192.829 297.713 192.621C297.898 192.413 298.032 192.077 298.115 191.613C298.201 191.15 298.258 190.531 298.287 189.758L298.424 186H303.482V194H302.291V187.023H299.561L299.436 190.078C299.402 190.935 299.316 191.655 299.178 192.238C299.04 192.819 298.805 193.258 298.475 193.555C298.146 193.852 297.679 194 297.072 194H296.729ZM306.088 189.227H308.244C308.838 189.227 309.343 189.323 309.76 189.516C310.176 189.708 310.494 189.98 310.713 190.332C310.934 190.684 311.044 191.098 311.041 191.574C311.044 192.051 310.934 192.471 310.713 192.836C310.494 193.201 310.176 193.486 309.76 193.691C309.343 193.897 308.838 194 308.244 194H305.248V186H306.459V192.984H308.244C308.59 192.984 308.882 192.917 309.119 192.781C309.359 192.646 309.54 192.47 309.662 192.254C309.787 192.038 309.85 191.806 309.85 191.559C309.85 191.199 309.712 190.891 309.436 190.633C309.16 190.372 308.762 190.242 308.244 190.242H306.088V189.227ZM311.678 187.039V186H317.869V187.039H315.373V194H314.17V187.039H311.678ZM318.968 194H317.687L320.565 186H321.96L324.839 194H323.558L321.296 187.453H321.233L318.968 194ZM319.183 190.867H323.339V191.883H319.183V190.867ZM324.654 187.039V186H330.846V187.039H328.35V194H327.146V187.039H324.654Z" fill="white"/>
</g>
<defs>
<filter id="filter0_d_614_82" x="-58" y="223.59" width="337.078" height="314.41" filterUnits="userSpaceOnUse" color-interpolation-filters="sRGB">
<feFlood flood-opacity="0" result="BackgroundImageFix"/>
<feColorMatrix in="SourceAlpha" type="matrix" values="0 0 0 0 0 0 0 0 0 0 0 0 0 0 0 0 0 0 127 0" result="hardAlpha"/>
<feOffset dx="2" dy="2"/>
<feGaussianBlur stdDeviation="30"/>
<feComposite in2="hardAlpha" operator="out"/>
<feColorMatrix type="matrix" values="0 0 0 0 0.752941 0 0 0 0 0.690196 0 0 0 0 0.984314 0 0 0 0.15 0"/>
<feBlend mode="normal" in2="BackgroundImageFix" result="effect1_dropShadow_614_82"/>
<feBlend mode="normal" in="SourceGraphic" in2="effect1_dropShadow_614_82" result="shape"/>
</filter>
<filter id="filter1_d_614_82" x="181.742" y="223.59" width="337.078" height="314.41" filterUnits="userSpaceOnUse" color-interpolation-filters="sRGB">
<feFlood flood-opacity="0" result="BackgroundImageFix"/>
<feColorMatrix in="SourceAlpha" type="matrix" values="0 0 0 0 0 0 0 0 0 0 0 0 0 0 0 0 0 0 127 0" result="hardAlpha"/>
<feOffset dx="2" dy="2"/>
<feGaussianBlur stdDeviation="30"/>
<feComposite in2="hardAlpha" operator="out"/>
<feColorMatrix type="matrix" values="0 0 0 0 0.886275 0 0 0 0 0.509804 0 0 0 0 0.290196 0 0 0 0.15 0"/>
<feBlend mode="normal" in2="BackgroundImageFix" result="effect1_dropShadow_614_82"/>
<feBlend mode="normal" in="SourceGraphic" in2="effect1_dropShadow_614_82" result="shape"/>
</filter>
<linearGradient id="paint0_linear_614_82" x1="456.82" y1="258.923" x2="144.282" y2="-115.949" gradientUnits="userSpaceOnUse">
<stop stop-color="#E268FF"/>
<stop offset="0.681293" stop-color="#E700F4"/>
<stop offset="1" stop-color="#FF0090"/>
</linearGradient>
</defs>
</svg>
